<?xml version="1.0" encoding="utf-8" standalone="no"?>
<!DOCTYPE svg PUBLIC "-//W3C//DTD SVG 1.1//EN"
  "http://www.w3.org/Graphics/SVG/1.1/DTD/svg11.dtd">
<svg height="345.6pt" version="1.1" viewBox="0 0 460.8 345.6" width="460.8pt" xmlns="http://www.w3.org/2000/svg" xmlns:xlink="http://www.w3.org/1999/xlink">
 <metadata>
  <rdf:RDF xmlns:cc="http://creativecommons.org/ns#" xmlns:dc="http://purl.org/dc/elements/1.1/" xmlns:rdf="http://www.w3.org/1999/02/22-rdf-syntax-ns#">
   <cc:Work>
    <dc:type rdf:resource="http://purl.org/dc/dcmitype/StillImage"/>
    <dc:date>2021-10-19T10:03:13.570427</dc:date>
    <dc:format>image/svg+xml</dc:format>
    <dc:creator>
     <cc:Agent>
      <dc:title>Matplotlib v3.4.3, https://matplotlib.org/</dc:title>
     </cc:Agent>
    </dc:creator>
   </cc:Work>
  </rdf:RDF>
 </metadata>
 <defs>
  <style type="text/css">*{stroke-linecap:butt;stroke-linejoin:round;}</style>
 </defs>
 <g id="figure_1">
  <g id="patch_1">
   <path d="M 0 345.6 
L 460.8 345.6 
L 460.8 0 
L 0 0 
z
" style="fill:#ffffff;"/>
  </g>
  <g id="axes_1">
   <g id="patch_2">
    <path d="M 57.6 307.584 
L 414.72 307.584 
L 414.72 41.472 
L 57.6 41.472 
z
" style="fill:#ffffff;"/>
   </g>
   <g id="matplotlib.axis_1">
    <g id="xtick_1">
     <g id="line2d_1">
      <defs>
       <path d="M 0 0 
L 0 3.5 
" id="m76ca72adc7" style="stroke:#000000;stroke-width:0.8;"/>
      </defs>
      <g>
       <use style="stroke:#000000;stroke-width:0.8;" x="73.832727" xlink:href="#m76ca72adc7" y="307.584"/>
      </g>
     </g>
     <g id="text_1">
      <!-- 0 -->
      <g transform="translate(70.651477 322.182437)scale(0.1 -0.1)">
       <defs>
        <path d="M 2034 4250 
Q 1547 4250 1301 3770 
Q 1056 3291 1056 2328 
Q 1056 1369 1301 889 
Q 1547 409 2034 409 
Q 2525 409 2770 889 
Q 3016 1369 3016 2328 
Q 3016 3291 2770 3770 
Q 2525 4250 2034 4250 
z
M 2034 4750 
Q 2819 4750 3233 4129 
Q 3647 3509 3647 2328 
Q 3647 1150 3233 529 
Q 2819 -91 2034 -91 
Q 1250 -91 836 529 
Q 422 1150 422 2328 
Q 422 3509 836 4129 
Q 1250 4750 2034 4750 
z
" id="DejaVuSans-30" transform="scale(0.015625)"/>
       </defs>
       <use xlink:href="#DejaVuSans-30"/>
      </g>
     </g>
    </g>
    <g id="xtick_2">
     <g id="line2d_2">
      <g>
       <use style="stroke:#000000;stroke-width:0.8;" x="138.893758" xlink:href="#m76ca72adc7" y="307.584"/>
      </g>
     </g>
     <g id="text_2">
      <!-- 100 -->
      <g transform="translate(129.350008 322.182437)scale(0.1 -0.1)">
       <defs>
        <path d="M 794 531 
L 1825 531 
L 1825 4091 
L 703 3866 
L 703 4441 
L 1819 4666 
L 2450 4666 
L 2450 531 
L 3481 531 
L 3481 0 
L 794 0 
L 794 531 
z
" id="DejaVuSans-31" transform="scale(0.015625)"/>
       </defs>
       <use xlink:href="#DejaVuSans-31"/>
       <use x="63.623047" xlink:href="#DejaVuSans-30"/>
       <use x="127.246094" xlink:href="#DejaVuSans-30"/>
      </g>
     </g>
    </g>
    <g id="xtick_3">
     <g id="line2d_3">
      <g>
       <use style="stroke:#000000;stroke-width:0.8;" x="203.95479" xlink:href="#m76ca72adc7" y="307.584"/>
      </g>
     </g>
     <g id="text_3">
      <!-- 200 -->
      <g transform="translate(194.41104 322.182437)scale(0.1 -0.1)">
       <defs>
        <path d="M 1228 531 
L 3431 531 
L 3431 0 
L 469 0 
L 469 531 
Q 828 903 1448 1529 
Q 2069 2156 2228 2338 
Q 2531 2678 2651 2914 
Q 2772 3150 2772 3378 
Q 2772 3750 2511 3984 
Q 2250 4219 1831 4219 
Q 1534 4219 1204 4116 
Q 875 4013 500 3803 
L 500 4441 
Q 881 4594 1212 4672 
Q 1544 4750 1819 4750 
Q 2544 4750 2975 4387 
Q 3406 4025 3406 3419 
Q 3406 3131 3298 2873 
Q 3191 2616 2906 2266 
Q 2828 2175 2409 1742 
Q 1991 1309 1228 531 
z
" id="DejaVuSans-32" transform="scale(0.015625)"/>
       </defs>
       <use xlink:href="#DejaVuSans-32"/>
       <use x="63.623047" xlink:href="#DejaVuSans-30"/>
       <use x="127.246094" xlink:href="#DejaVuSans-30"/>
      </g>
     </g>
    </g>
    <g id="xtick_4">
     <g id="line2d_4">
      <g>
       <use style="stroke:#000000;stroke-width:0.8;" x="269.015821" xlink:href="#m76ca72adc7" y="307.584"/>
      </g>
     </g>
     <g id="text_4">
      <!-- 300 -->
      <g transform="translate(259.472071 322.182437)scale(0.1 -0.1)">
       <defs>
        <path d="M 2597 2516 
Q 3050 2419 3304 2112 
Q 3559 1806 3559 1356 
Q 3559 666 3084 287 
Q 2609 -91 1734 -91 
Q 1441 -91 1130 -33 
Q 819 25 488 141 
L 488 750 
Q 750 597 1062 519 
Q 1375 441 1716 441 
Q 2309 441 2620 675 
Q 2931 909 2931 1356 
Q 2931 1769 2642 2001 
Q 2353 2234 1838 2234 
L 1294 2234 
L 1294 2753 
L 1863 2753 
Q 2328 2753 2575 2939 
Q 2822 3125 2822 3475 
Q 2822 3834 2567 4026 
Q 2313 4219 1838 4219 
Q 1578 4219 1281 4162 
Q 984 4106 628 3988 
L 628 4550 
Q 988 4650 1302 4700 
Q 1616 4750 1894 4750 
Q 2613 4750 3031 4423 
Q 3450 4097 3450 3541 
Q 3450 3153 3228 2886 
Q 3006 2619 2597 2516 
z
" id="DejaVuSans-33" transform="scale(0.015625)"/>
       </defs>
       <use xlink:href="#DejaVuSans-33"/>
       <use x="63.623047" xlink:href="#DejaVuSans-30"/>
       <use x="127.246094" xlink:href="#DejaVuSans-30"/>
      </g>
     </g>
    </g>
    <g id="xtick_5">
     <g id="line2d_5">
      <g>
       <use style="stroke:#000000;stroke-width:0.8;" x="334.076852" xlink:href="#m76ca72adc7" y="307.584"/>
      </g>
     </g>
     <g id="text_5">
      <!-- 400 -->
      <g transform="translate(324.533102 322.182437)scale(0.1 -0.1)">
       <defs>
        <path d="M 2419 4116 
L 825 1625 
L 2419 1625 
L 2419 4116 
z
M 2253 4666 
L 3047 4666 
L 3047 1625 
L 3713 1625 
L 3713 1100 
L 3047 1100 
L 3047 0 
L 2419 0 
L 2419 1100 
L 313 1100 
L 313 1709 
L 2253 4666 
z
" id="DejaVuSans-34" transform="scale(0.015625)"/>
       </defs>
       <use xlink:href="#DejaVuSans-34"/>
       <use x="63.623047" xlink:href="#DejaVuSans-30"/>
       <use x="127.246094" xlink:href="#DejaVuSans-30"/>
      </g>
     </g>
    </g>
    <g id="xtick_6">
     <g id="line2d_6">
      <g>
       <use style="stroke:#000000;stroke-width:0.8;" x="399.137883" xlink:href="#m76ca72adc7" y="307.584"/>
      </g>
     </g>
     <g id="text_6">
      <!-- 500 -->
      <g transform="translate(389.594133 322.182437)scale(0.1 -0.1)">
       <defs>
        <path d="M 691 4666 
L 3169 4666 
L 3169 4134 
L 1269 4134 
L 1269 2991 
Q 1406 3038 1543 3061 
Q 1681 3084 1819 3084 
Q 2600 3084 3056 2656 
Q 3513 2228 3513 1497 
Q 3513 744 3044 326 
Q 2575 -91 1722 -91 
Q 1428 -91 1123 -41 
Q 819 9 494 109 
L 494 744 
Q 775 591 1075 516 
Q 1375 441 1709 441 
Q 2250 441 2565 725 
Q 2881 1009 2881 1497 
Q 2881 1984 2565 2268 
Q 2250 2553 1709 2553 
Q 1456 2553 1204 2497 
Q 953 2441 691 2322 
L 691 4666 
z
" id="DejaVuSans-35" transform="scale(0.015625)"/>
       </defs>
       <use xlink:href="#DejaVuSans-35"/>
       <use x="63.623047" xlink:href="#DejaVuSans-30"/>
       <use x="127.246094" xlink:href="#DejaVuSans-30"/>
      </g>
     </g>
    </g>
    <g id="text_7">
     <!-- steps -->
     <g transform="translate(222.739688 335.860562)scale(0.1 -0.1)">
      <defs>
       <path d="M 2834 3397 
L 2834 2853 
Q 2591 2978 2328 3040 
Q 2066 3103 1784 3103 
Q 1356 3103 1142 2972 
Q 928 2841 928 2578 
Q 928 2378 1081 2264 
Q 1234 2150 1697 2047 
L 1894 2003 
Q 2506 1872 2764 1633 
Q 3022 1394 3022 966 
Q 3022 478 2636 193 
Q 2250 -91 1575 -91 
Q 1294 -91 989 -36 
Q 684 19 347 128 
L 347 722 
Q 666 556 975 473 
Q 1284 391 1588 391 
Q 1994 391 2212 530 
Q 2431 669 2431 922 
Q 2431 1156 2273 1281 
Q 2116 1406 1581 1522 
L 1381 1569 
Q 847 1681 609 1914 
Q 372 2147 372 2553 
Q 372 3047 722 3315 
Q 1072 3584 1716 3584 
Q 2034 3584 2315 3537 
Q 2597 3491 2834 3397 
z
" id="DejaVuSans-73" transform="scale(0.015625)"/>
       <path d="M 1172 4494 
L 1172 3500 
L 2356 3500 
L 2356 3053 
L 1172 3053 
L 1172 1153 
Q 1172 725 1289 603 
Q 1406 481 1766 481 
L 2356 481 
L 2356 0 
L 1766 0 
Q 1100 0 847 248 
Q 594 497 594 1153 
L 594 3053 
L 172 3053 
L 172 3500 
L 594 3500 
L 594 4494 
L 1172 4494 
z
" id="DejaVuSans-74" transform="scale(0.015625)"/>
       <path d="M 3597 1894 
L 3597 1613 
L 953 1613 
Q 991 1019 1311 708 
Q 1631 397 2203 397 
Q 2534 397 2845 478 
Q 3156 559 3463 722 
L 3463 178 
Q 3153 47 2828 -22 
Q 2503 -91 2169 -91 
Q 1331 -91 842 396 
Q 353 884 353 1716 
Q 353 2575 817 3079 
Q 1281 3584 2069 3584 
Q 2775 3584 3186 3129 
Q 3597 2675 3597 1894 
z
M 3022 2063 
Q 3016 2534 2758 2815 
Q 2500 3097 2075 3097 
Q 1594 3097 1305 2825 
Q 1016 2553 972 2059 
L 3022 2063 
z
" id="DejaVuSans-65" transform="scale(0.015625)"/>
       <path d="M 1159 525 
L 1159 -1331 
L 581 -1331 
L 581 3500 
L 1159 3500 
L 1159 2969 
Q 1341 3281 1617 3432 
Q 1894 3584 2278 3584 
Q 2916 3584 3314 3078 
Q 3713 2572 3713 1747 
Q 3713 922 3314 415 
Q 2916 -91 2278 -91 
Q 1894 -91 1617 61 
Q 1341 213 1159 525 
z
M 3116 1747 
Q 3116 2381 2855 2742 
Q 2594 3103 2138 3103 
Q 1681 3103 1420 2742 
Q 1159 2381 1159 1747 
Q 1159 1113 1420 752 
Q 1681 391 2138 391 
Q 2594 391 2855 752 
Q 3116 1113 3116 1747 
z
" id="DejaVuSans-70" transform="scale(0.015625)"/>
      </defs>
      <use xlink:href="#DejaVuSans-73"/>
      <use x="52.099609" xlink:href="#DejaVuSans-74"/>
      <use x="91.308594" xlink:href="#DejaVuSans-65"/>
      <use x="152.832031" xlink:href="#DejaVuSans-70"/>
      <use x="216.308594" xlink:href="#DejaVuSans-73"/>
     </g>
    </g>
   </g>
   <g id="matplotlib.axis_2">
    <g id="ytick_1">
     <g id="line2d_7">
      <defs>
       <path d="M 0 0 
L -3.5 0 
" id="m9df966c57f" style="stroke:#000000;stroke-width:0.8;"/>
      </defs>
      <g>
       <use style="stroke:#000000;stroke-width:0.8;" x="57.6" xlink:href="#m9df966c57f" y="274.959044"/>
      </g>
     </g>
     <g id="text_8">
      <!-- 0.2 -->
      <g transform="translate(34.696875 278.758262)scale(0.1 -0.1)">
       <defs>
        <path d="M 684 794 
L 1344 794 
L 1344 0 
L 684 0 
L 684 794 
z
" id="DejaVuSans-2e" transform="scale(0.015625)"/>
       </defs>
       <use xlink:href="#DejaVuSans-30"/>
       <use x="63.623047" xlink:href="#DejaVuSans-2e"/>
       <use x="95.410156" xlink:href="#DejaVuSans-32"/>
      </g>
     </g>
    </g>
    <g id="ytick_2">
     <g id="line2d_8">
      <g>
       <use style="stroke:#000000;stroke-width:0.8;" x="57.6" xlink:href="#m9df966c57f" y="223.581777"/>
      </g>
     </g>
     <g id="text_9">
      <!-- 0.4 -->
      <g transform="translate(34.696875 227.380996)scale(0.1 -0.1)">
       <use xlink:href="#DejaVuSans-30"/>
       <use x="63.623047" xlink:href="#DejaVuSans-2e"/>
       <use x="95.410156" xlink:href="#DejaVuSans-34"/>
      </g>
     </g>
    </g>
    <g id="ytick_3">
     <g id="line2d_9">
      <g>
       <use style="stroke:#000000;stroke-width:0.8;" x="57.6" xlink:href="#m9df966c57f" y="172.20451"/>
      </g>
     </g>
     <g id="text_10">
      <!-- 0.6 -->
      <g transform="translate(34.696875 176.003729)scale(0.1 -0.1)">
       <defs>
        <path d="M 2113 2584 
Q 1688 2584 1439 2293 
Q 1191 2003 1191 1497 
Q 1191 994 1439 701 
Q 1688 409 2113 409 
Q 2538 409 2786 701 
Q 3034 994 3034 1497 
Q 3034 2003 2786 2293 
Q 2538 2584 2113 2584 
z
M 3366 4563 
L 3366 3988 
Q 3128 4100 2886 4159 
Q 2644 4219 2406 4219 
Q 1781 4219 1451 3797 
Q 1122 3375 1075 2522 
Q 1259 2794 1537 2939 
Q 1816 3084 2150 3084 
Q 2853 3084 3261 2657 
Q 3669 2231 3669 1497 
Q 3669 778 3244 343 
Q 2819 -91 2113 -91 
Q 1303 -91 875 529 
Q 447 1150 447 2328 
Q 447 3434 972 4092 
Q 1497 4750 2381 4750 
Q 2619 4750 2861 4703 
Q 3103 4656 3366 4563 
z
" id="DejaVuSans-36" transform="scale(0.015625)"/>
       </defs>
       <use xlink:href="#DejaVuSans-30"/>
       <use x="63.623047" xlink:href="#DejaVuSans-2e"/>
       <use x="95.410156" xlink:href="#DejaVuSans-36"/>
      </g>
     </g>
    </g>
    <g id="ytick_4">
     <g id="line2d_10">
      <g>
       <use style="stroke:#000000;stroke-width:0.8;" x="57.6" xlink:href="#m9df966c57f" y="120.827243"/>
      </g>
     </g>
     <g id="text_11">
      <!-- 0.8 -->
      <g transform="translate(34.696875 124.626462)scale(0.1 -0.1)">
       <defs>
        <path d="M 2034 2216 
Q 1584 2216 1326 1975 
Q 1069 1734 1069 1313 
Q 1069 891 1326 650 
Q 1584 409 2034 409 
Q 2484 409 2743 651 
Q 3003 894 3003 1313 
Q 3003 1734 2745 1975 
Q 2488 2216 2034 2216 
z
M 1403 2484 
Q 997 2584 770 2862 
Q 544 3141 544 3541 
Q 544 4100 942 4425 
Q 1341 4750 2034 4750 
Q 2731 4750 3128 4425 
Q 3525 4100 3525 3541 
Q 3525 3141 3298 2862 
Q 3072 2584 2669 2484 
Q 3125 2378 3379 2068 
Q 3634 1759 3634 1313 
Q 3634 634 3220 271 
Q 2806 -91 2034 -91 
Q 1263 -91 848 271 
Q 434 634 434 1313 
Q 434 1759 690 2068 
Q 947 2378 1403 2484 
z
M 1172 3481 
Q 1172 3119 1398 2916 
Q 1625 2713 2034 2713 
Q 2441 2713 2670 2916 
Q 2900 3119 2900 3481 
Q 2900 3844 2670 4047 
Q 2441 4250 2034 4250 
Q 1625 4250 1398 4047 
Q 1172 3844 1172 3481 
z
" id="DejaVuSans-38" transform="scale(0.015625)"/>
       </defs>
       <use xlink:href="#DejaVuSans-30"/>
       <use x="63.623047" xlink:href="#DejaVuSans-2e"/>
       <use x="95.410156" xlink:href="#DejaVuSans-38"/>
      </g>
     </g>
    </g>
    <g id="ytick_5">
     <g id="line2d_11">
      <g>
       <use style="stroke:#000000;stroke-width:0.8;" x="57.6" xlink:href="#m9df966c57f" y="69.449976"/>
      </g>
     </g>
     <g id="text_12">
      <!-- 1.0 -->
      <g transform="translate(34.696875 73.249195)scale(0.1 -0.1)">
       <use xlink:href="#DejaVuSans-31"/>
       <use x="63.623047" xlink:href="#DejaVuSans-2e"/>
       <use x="95.410156" xlink:href="#DejaVuSans-30"/>
      </g>
     </g>
    </g>
    <g id="text_13">
     <!-- Model Loss -->
     <g transform="translate(28.617187 202.097531)rotate(-90)scale(0.1 -0.1)">
      <defs>
       <path d="M 628 4666 
L 1569 4666 
L 2759 1491 
L 3956 4666 
L 4897 4666 
L 4897 0 
L 4281 0 
L 4281 4097 
L 3078 897 
L 2444 897 
L 1241 4097 
L 1241 0 
L 628 0 
L 628 4666 
z
" id="DejaVuSans-4d" transform="scale(0.015625)"/>
       <path d="M 1959 3097 
Q 1497 3097 1228 2736 
Q 959 2375 959 1747 
Q 959 1119 1226 758 
Q 1494 397 1959 397 
Q 2419 397 2687 759 
Q 2956 1122 2956 1747 
Q 2956 2369 2687 2733 
Q 2419 3097 1959 3097 
z
M 1959 3584 
Q 2709 3584 3137 3096 
Q 3566 2609 3566 1747 
Q 3566 888 3137 398 
Q 2709 -91 1959 -91 
Q 1206 -91 779 398 
Q 353 888 353 1747 
Q 353 2609 779 3096 
Q 1206 3584 1959 3584 
z
" id="DejaVuSans-6f" transform="scale(0.015625)"/>
       <path d="M 2906 2969 
L 2906 4863 
L 3481 4863 
L 3481 0 
L 2906 0 
L 2906 525 
Q 2725 213 2448 61 
Q 2172 -91 1784 -91 
Q 1150 -91 751 415 
Q 353 922 353 1747 
Q 353 2572 751 3078 
Q 1150 3584 1784 3584 
Q 2172 3584 2448 3432 
Q 2725 3281 2906 2969 
z
M 947 1747 
Q 947 1113 1208 752 
Q 1469 391 1925 391 
Q 2381 391 2643 752 
Q 2906 1113 2906 1747 
Q 2906 2381 2643 2742 
Q 2381 3103 1925 3103 
Q 1469 3103 1208 2742 
Q 947 2381 947 1747 
z
" id="DejaVuSans-64" transform="scale(0.015625)"/>
       <path d="M 603 4863 
L 1178 4863 
L 1178 0 
L 603 0 
L 603 4863 
z
" id="DejaVuSans-6c" transform="scale(0.015625)"/>
       <path id="DejaVuSans-20" transform="scale(0.015625)"/>
       <path d="M 628 4666 
L 1259 4666 
L 1259 531 
L 3531 531 
L 3531 0 
L 628 0 
L 628 4666 
z
" id="DejaVuSans-4c" transform="scale(0.015625)"/>
      </defs>
      <use xlink:href="#DejaVuSans-4d"/>
      <use x="86.279297" xlink:href="#DejaVuSans-6f"/>
      <use x="147.460938" xlink:href="#DejaVuSans-64"/>
      <use x="210.9375" xlink:href="#DejaVuSans-65"/>
      <use x="272.460938" xlink:href="#DejaVuSans-6c"/>
      <use x="300.244141" xlink:href="#DejaVuSans-20"/>
      <use x="332.03125" xlink:href="#DejaVuSans-4c"/>
      <use x="385.994141" xlink:href="#DejaVuSans-6f"/>
      <use x="447.175781" xlink:href="#DejaVuSans-73"/>
      <use x="499.275391" xlink:href="#DejaVuSans-73"/>
     </g>
    </g>
   </g>
   <g id="line2d_12">
    <path clip-path="url(#p68b4cc0ec9)" d="M 73.832727 55.966902 
L 74.483338 53.568 
L 75.784558 65.084665 
L 76.435169 65.334183 
L 77.085779 65.322056 
L 77.736389 70.009111 
L 78.386999 73.130767 
L 79.03761 74.884009 
L 79.68822 73.551423 
L 80.33883 77.780293 
L 80.989441 79.397124 
L 81.640051 81.946095 
L 82.290661 87.108269 
L 82.941272 87.149151 
L 83.591882 87.921377 
L 84.242492 86.647941 
L 84.893103 95.895515 
L 85.543713 95.456562 
L 86.194323 99.139955 
L 86.844934 101.352423 
L 87.495544 98.758574 
L 88.146154 103.489052 
L 88.796764 103.589634 
L 90.748595 111.209737 
L 91.399206 112.166698 
L 92.049816 115.29382 
L 92.700426 113.24214 
L 93.351037 116.078755 
L 94.001647 121.874218 
L 94.652257 122.549767 
L 95.302868 122.877481 
L 95.953478 123.675018 
L 97.254698 128.261705 
L 97.905309 129.013766 
L 98.555919 133.164332 
L 99.206529 134.493733 
L 99.85714 135.07513 
L 100.50775 137.074123 
L 101.15836 141.2515 
L 101.808971 137.54027 
L 102.459581 141.481787 
L 103.110191 146.832003 
L 103.760802 148.062399 
L 104.411412 145.722738 
L 105.062022 146.617151 
L 105.712633 149.203222 
L 106.363243 152.313349 
L 107.013853 151.477625 
L 107.664463 153.915296 
L 108.315074 157.560395 
L 108.965684 153.90101 
L 109.616294 158.006071 
L 110.917515 161.23892 
L 111.568125 159.682494 
L 112.218736 164.823002 
L 112.869346 166.926267 
L 113.519956 167.952422 
L 114.170567 167.967167 
L 114.821177 172.705699 
L 115.471787 173.163838 
L 116.122398 174.354102 
L 116.773008 172.932556 
L 117.423618 174.761162 
L 118.074228 177.594423 
L 118.724839 178.63938 
L 119.375449 180.061891 
L 120.026059 184.021812 
L 120.67667 180.249734 
L 121.32728 184.568207 
L 121.97789 184.493778 
L 123.279111 186.308786 
L 123.929721 190.7189 
L 124.580332 190.827827 
L 125.230942 192.10947 
L 125.881552 192.00872 
L 126.532163 194.675085 
L 127.182773 193.929256 
L 127.833383 194.425353 
L 128.483993 197.18936 
L 129.134604 197.19475 
L 129.785214 199.619406 
L 130.435824 200.879545 
L 131.737045 202.408662 
L 132.387655 203.150265 
L 133.038266 205.952996 
L 133.688876 206.101618 
L 134.990097 209.500124 
L 135.640707 209.762136 
L 136.291317 209.213046 
L 136.941927 214.605599 
L 137.592538 211.599247 
L 138.243148 214.462244 
L 138.893758 216.109675 
L 139.544369 216.979421 
L 140.194979 217.17975 
L 140.845589 215.770124 
L 141.4962 217.048522 
L 142.14681 221.413903 
L 142.79742 222.524845 
L 143.448031 223.924794 
L 144.098641 224.387856 
L 144.749251 222.699007 
L 145.399862 224.102684 
L 146.050472 228.069335 
L 146.701082 227.931822 
L 147.351692 227.193886 
L 148.002303 228.239662 
L 148.652913 230.00134 
L 149.303523 229.451377 
L 149.954134 230.771354 
L 150.604744 232.527083 
L 151.905965 232.045617 
L 153.207185 235.132776 
L 153.857796 238.861309 
L 154.508406 237.155441 
L 155.159016 237.710005 
L 155.809627 239.111263 
L 156.460237 239.386796 
L 157.110847 240.251795 
L 157.761457 240.753894 
L 158.412068 238.222232 
L 159.062678 242.980785 
L 159.713288 242.244342 
L 160.363899 241.929428 
L 161.014509 243.376276 
L 161.665119 245.344493 
L 162.31573 244.697508 
L 162.96634 243.472778 
L 163.61695 245.494233 
L 164.267561 246.676053 
L 164.918171 248.638849 
L 165.568781 247.088065 
L 166.219392 246.672837 
L 166.870002 248.521815 
L 167.520612 249.372811 
L 168.171222 249.42618 
L 168.821833 251.22972 
L 169.472443 252.203968 
L 170.123053 250.371979 
L 170.773664 251.35598 
L 171.424274 253.11112 
L 172.074884 251.753561 
L 172.725495 255.241012 
L 173.376105 252.033871 
L 174.677326 256.503164 
L 175.327936 254.439013 
L 175.978546 255.120778 
L 176.629156 253.207683 
L 177.279767 256.100729 
L 177.930377 256.279829 
L 178.580987 259.097305 
L 179.231598 256.768913 
L 179.882208 256.591045 
L 180.532818 259.815519 
L 181.183429 258.776924 
L 181.834039 258.486348 
L 182.484649 259.120088 
L 183.13526 261.606955 
L 183.78587 262.235524 
L 184.43648 258.482941 
L 185.087091 260.178657 
L 185.737701 260.08201 
L 186.388311 263.827087 
L 187.038921 261.256993 
L 187.689532 264.499309 
L 188.990752 260.713262 
L 189.641363 264.753884 
L 190.291973 263.267757 
L 190.942583 262.380935 
L 191.593194 264.128664 
L 192.243804 264.778271 
L 192.894414 264.384674 
L 193.545025 265.917693 
L 194.195635 264.266427 
L 194.846245 266.46044 
L 195.496856 264.295197 
L 196.147466 266.958217 
L 196.798076 266.002887 
L 197.448686 266.342376 
L 198.099297 266.331868 
L 198.749907 266.819356 
L 199.400517 267.675987 
L 200.051128 267.311265 
L 200.701738 267.582996 
L 201.352348 267.614752 
L 202.002959 269.111157 
L 202.653569 269.073563 
L 203.304179 267.553755 
L 203.95479 269.5425 
L 204.6054 268.79529 
L 205.25601 267.645303 
L 205.906621 268.400265 
L 206.557231 271.306893 
L 207.207841 271.188163 
L 207.858451 269.30094 
L 208.509062 270.225862 
L 209.159672 271.838585 
L 209.810282 270.718356 
L 211.111503 271.540559 
L 211.762113 270.861746 
L 212.412724 270.017861 
L 213.063334 270.477945 
L 213.713944 271.572392 
L 214.364555 269.983509 
L 215.015165 270.885479 
L 215.665775 272.32569 
L 216.316385 271.733608 
L 216.966996 273.992696 
L 217.617606 273.398716 
L 218.268216 271.711805 
L 218.918827 273.031448 
L 219.569437 271.07336 
L 220.220047 271.061761 
L 220.870658 270.917824 
L 221.521268 273.137102 
L 222.171878 272.103947 
L 222.822489 272.688161 
L 223.473099 273.822768 
L 224.123709 274.288689 
L 224.77432 271.345979 
L 225.42493 272.830299 
L 226.07554 275.008182 
L 226.72615 275.215199 
L 227.376761 274.747612 
L 228.027371 273.198318 
L 228.677981 273.374065 
L 229.328592 272.496954 
L 229.979202 273.738328 
L 230.629812 275.233167 
L 231.280423 275.07179 
L 231.931033 272.415573 
L 232.581643 276.123591 
L 233.232254 274.230371 
L 233.882864 275.976883 
L 234.533474 275.287737 
L 235.184085 274.891052 
L 235.834695 275.056394 
L 236.485305 275.029419 
L 238.437136 276.446084 
L 239.087746 275.084131 
L 239.738357 274.783392 
L 240.388967 274.634896 
L 241.039577 277.065359 
L 241.690188 273.660993 
L 242.340798 276.407851 
L 242.991408 275.186899 
L 243.642019 274.427661 
L 244.292629 276.639126 
L 244.943239 275.383424 
L 245.59385 276.907217 
L 246.24446 276.601199 
L 246.89507 276.782427 
L 247.54568 276.7146 
L 248.196291 277.095083 
L 248.846901 276.483988 
L 249.497511 277.134594 
L 250.148122 277.083147 
L 250.798732 275.119823 
L 251.449342 275.817971 
L 252.099953 277.460674 
L 252.750563 277.80834 
L 253.401173 277.966876 
L 254.051784 276.625671 
L 254.702394 275.854528 
L 255.353004 275.967914 
L 256.003615 277.788527 
L 256.654225 276.590377 
L 257.304835 278.573814 
L 257.955445 276.511932 
L 258.606056 278.156247 
L 259.256666 278.042359 
L 259.907276 277.204951 
L 260.557887 277.00422 
L 261.208497 276.056595 
L 261.859107 277.517067 
L 263.160328 278.463069 
L 263.810938 277.890916 
L 264.461549 277.621266 
L 265.112159 277.011359 
L 265.762769 275.617864 
L 266.413379 280.112788 
L 267.06399 276.215193 
L 267.7146 277.381391 
L 268.36521 278.981409 
L 269.015821 277.565302 
L 269.666431 279.521465 
L 270.317041 276.336955 
L 271.618262 278.202756 
L 272.268872 277.588021 
L 272.919483 278.006315 
L 273.570093 278.883859 
L 274.220703 276.8091 
L 274.871314 279.527425 
L 275.521924 277.58631 
L 276.823144 278.802217 
L 277.473755 277.560537 
L 278.124365 278.681102 
L 278.774975 279.572483 
L 279.425586 277.700577 
L 280.076196 277.230215 
L 280.726806 279.53796 
L 282.028027 278.360473 
L 282.678637 279.179005 
L 283.329248 277.720187 
L 283.979858 278.252641 
L 284.630468 278.107005 
L 285.281079 279.365868 
L 285.931689 279.030938 
L 286.582299 280.224762 
L 287.88352 278.498293 
L 288.53413 276.691844 
L 289.18474 277.71079 
L 289.835351 280.164419 
L 290.485961 276.181293 
L 291.136571 278.946912 
L 291.787182 280.414634 
L 292.437792 279.064168 
L 293.088402 279.316932 
L 293.739013 278.902294 
L 294.389623 280.253269 
L 295.040233 280.265751 
L 295.690844 278.717728 
L 296.341454 279.243839 
L 296.992064 277.328325 
L 297.642674 279.824157 
L 298.293285 278.613253 
L 299.594505 278.672417 
L 300.245116 281.483607 
L 300.895726 279.553692 
L 301.546336 278.532576 
L 302.196947 279.726273 
L 302.847557 280.332625 
L 303.498167 281.978165 
L 304.148778 279.203071 
L 305.449998 280.765844 
L 306.100608 280.70002 
L 306.751219 280.034848 
L 307.401829 282.431404 
L 308.052439 280.625238 
L 308.70305 280.983162 
L 309.35366 281.154667 
L 310.00427 280.77657 
L 310.654881 281.058664 
L 311.305491 280.296447 
L 311.956101 280.672887 
L 312.606712 280.529295 
L 313.257322 280.84378 
L 313.907932 279.307206 
L 314.558543 281.055586 
L 315.209153 280.237762 
L 315.859763 277.949639 
L 316.510373 280.571999 
L 317.160984 279.006811 
L 317.811594 281.906571 
L 318.462204 278.949959 
L 319.112815 281.201735 
L 319.763425 280.583724 
L 320.414035 280.994385 
L 321.064646 280.514833 
L 321.715256 278.605643 
L 322.365866 283.221897 
L 323.016477 283.794092 
L 323.667087 280.830321 
L 324.317697 279.059391 
L 324.968308 282.367225 
L 325.618918 281.164184 
L 326.269528 281.262714 
L 326.920138 280.314075 
L 327.570749 282.827615 
L 328.221359 281.54707 
L 328.871969 280.663417 
L 329.52258 281.548754 
L 330.17319 280.792081 
L 330.8238 280.651769 
L 331.474411 280.66264 
L 332.125021 279.024787 
L 332.775631 280.710079 
L 333.426242 281.298528 
L 334.076852 280.97025 
L 334.727462 281.837458 
L 335.378073 279.566439 
L 336.028683 280.927194 
L 336.679293 281.623027 
L 337.329903 279.195619 
L 337.980514 281.180468 
L 339.281734 280.853607 
L 339.932345 279.881353 
L 340.582955 279.886391 
L 341.233565 282.767632 
L 341.884176 283.223922 
L 342.534786 281.681081 
L 343.185396 282.425375 
L 343.836007 281.0405 
L 344.486617 280.176025 
L 345.137227 280.612345 
L 345.787837 281.36916 
L 346.438448 282.549387 
L 347.089058 281.48368 
L 347.739668 283.515673 
L 348.390279 280.425643 
L 349.040889 281.827559 
L 349.691499 281.793621 
L 350.34211 282.006552 
L 350.99272 282.094058 
L 351.64333 281.313778 
L 352.293941 282.70988 
L 352.944551 281.830576 
L 353.595161 282.686105 
L 354.245772 282.78377 
L 354.896382 281.615509 
L 356.197602 282.905195 
L 356.848213 281.579622 
L 357.498823 282.040996 
L 358.149433 283.371051 
L 358.800044 281.209299 
L 359.450654 282.885366 
L 360.101264 282.524751 
L 360.751875 281.583542 
L 361.402485 281.669379 
L 362.053095 281.31893 
L 362.703706 283.141913 
L 364.004926 282.04859 
L 364.655537 282.632223 
L 365.306147 281.980898 
L 365.956757 282.265537 
L 366.607367 284.170865 
L 367.257978 282.388382 
L 367.908588 283.456586 
L 368.559198 281.388457 
L 369.209809 282.557407 
L 369.860419 280.385837 
L 370.511029 283.657941 
L 371.16164 282.230094 
L 371.81225 284.316272 
L 372.46286 283.133166 
L 373.113471 281.409935 
L 373.764081 281.104748 
L 374.414691 282.346459 
L 375.065302 282.037057 
L 375.715912 282.308042 
L 376.366522 283.229725 
L 377.017132 283.749064 
L 377.667743 281.786421 
L 378.318353 283.761585 
L 378.968963 283.318838 
L 379.619574 282.426933 
L 380.270184 284.698871 
L 380.920794 282.107249 
L 381.571405 283.903302 
L 382.222015 282.749755 
L 382.872625 283.71552 
L 383.523236 282.795824 
L 384.173846 282.945897 
L 384.824456 284.015865 
L 386.125677 282.208256 
L 386.776287 282.506392 
L 387.426897 283.430877 
L 388.077508 282.680007 
L 388.728118 284.19229 
L 389.378728 284.244165 
L 390.029339 283.293035 
L 390.679949 284.501221 
L 391.330559 283.66539 
L 391.98117 283.121238 
L 392.63178 285.326463 
L 393.28239 283.330322 
L 393.933001 280.904227 
L 394.583611 283.668774 
L 395.234221 284.591245 
L 395.884831 283.737339 
L 396.535442 282.569538 
L 397.186052 283.241542 
L 397.836662 283.456704 
L 398.487273 281.734086 
L 398.487273 281.734086 
" style="fill:none;stroke:#1f77b4;stroke-linecap:square;stroke-width:1.5;"/>
   </g>
   <g id="line2d_13">
    <path clip-path="url(#p68b4cc0ec9)" d="M 73.832727 74.792017 
L 74.483338 92.359848 
L 75.133948 116.807711 
L 75.784558 136.077811 
L 77.736389 183.5709 
L 78.386999 194.075957 
L 79.03761 206.50207 
L 79.68822 215.073032 
L 80.33883 227.617367 
L 80.989441 233.825049 
L 82.290661 250.581028 
L 82.941272 255.500827 
L 83.591882 257.790542 
L 84.242492 263.425781 
L 84.893103 267.704632 
L 85.543713 268.570687 
L 86.194323 273.576591 
L 86.844934 274.531179 
L 87.495544 273.022889 
L 88.146154 276.391678 
L 88.796764 275.289743 
L 89.447375 276.948849 
L 90.097985 274.893494 
L 90.748595 276.47278 
L 91.399206 276.273002 
L 92.700426 276.935804 
L 93.351037 276.601738 
L 94.001647 280.078946 
L 94.652257 279.294956 
L 95.302868 277.771014 
L 95.953478 279.501564 
L 96.604088 280.562797 
L 97.254698 281.358534 
L 97.905309 280.942291 
L 98.555919 281.216312 
L 99.206529 281.168639 
L 99.85714 282.662563 
L 100.50775 282.426672 
L 101.15836 283.710157 
L 101.808971 283.631398 
L 102.459581 282.885998 
L 103.110191 285.614448 
L 103.760802 283.189838 
L 104.411412 284.265644 
L 105.062022 283.361971 
L 105.712633 284.275707 
L 106.363243 283.802536 
L 107.013853 283.540026 
L 107.664463 285.450189 
L 108.315074 284.633341 
L 108.965684 284.068522 
L 109.616294 284.199586 
L 110.266905 284.552067 
L 110.917515 283.194987 
L 111.568125 283.201172 
L 112.218736 286.088266 
L 112.869346 284.157184 
L 113.519956 286.35052 
L 114.170567 284.506836 
L 114.821177 284.752546 
L 116.122398 285.447961 
L 116.773008 283.693154 
L 117.423618 285.240657 
L 118.074228 285.111385 
L 118.724839 286.062726 
L 119.375449 285.646522 
L 120.026059 286.058053 
L 120.67667 285.341186 
L 121.32728 286.298736 
L 121.97789 284.124995 
L 122.628501 285.600886 
L 123.279111 284.598358 
L 123.929721 286.397044 
L 124.580332 286.340494 
L 125.230942 286.894855 
L 125.881552 285.940831 
L 126.532163 286.587241 
L 127.182773 284.894634 
L 127.833383 284.573185 
L 128.483993 285.928643 
L 129.134604 286.183302 
L 129.785214 286.067909 
L 130.435824 285.618249 
L 131.086435 286.889374 
L 131.737045 284.930693 
L 132.387655 286.213856 
L 133.038266 285.860261 
L 133.688876 286.126622 
L 134.339486 286.806722 
L 134.990097 286.842413 
L 135.640707 287.464926 
L 136.291317 285.835552 
L 136.941927 287.601157 
L 137.592538 286.173598 
L 138.243148 287.517357 
L 138.893758 287.645209 
L 139.544369 286.661889 
L 140.194979 286.279455 
L 140.845589 285.511397 
L 141.4962 285.050548 
L 142.14681 287.284406 
L 142.79742 287.034926 
L 143.448031 287.584621 
L 144.098641 286.840082 
L 144.749251 286.486414 
L 145.399862 286.667884 
L 146.050472 288.365873 
L 146.701082 288.243426 
L 147.351692 286.79683 
L 148.002303 286.907499 
L 148.652913 288.096726 
L 149.303523 287.079338 
L 149.954134 287.336251 
L 150.604744 287.887125 
L 151.255354 287.809143 
L 151.905965 286.614664 
L 152.556575 286.935339 
L 153.207185 288.458539 
L 153.857796 288.653265 
L 154.508406 287.838082 
L 155.809627 288.041451 
L 156.460237 287.466247 
L 157.110847 288.812494 
L 158.412068 286.947922 
L 159.062678 289.742598 
L 160.363899 287.946212 
L 161.014509 288.792589 
L 161.665119 289.441805 
L 162.31573 288.222771 
L 162.96634 287.933986 
L 163.61695 288.593599 
L 164.267561 288.791276 
L 164.918171 289.481937 
L 165.568781 288.75044 
L 166.219392 287.565899 
L 166.870002 289.381504 
L 167.520612 289.295212 
L 168.171222 288.443331 
L 168.821833 289.904423 
L 169.472443 289.572061 
L 170.123053 288.483601 
L 170.773664 288.916004 
L 171.424274 289.042677 
L 172.074884 288.857173 
L 172.725495 289.62726 
L 173.376105 287.834193 
L 174.677326 290.625091 
L 175.327936 288.519786 
L 176.629156 287.215389 
L 177.279767 289.20077 
L 178.580987 290.195834 
L 179.231598 288.955807 
L 179.882208 288.486605 
L 180.532818 290.158703 
L 181.183429 288.43984 
L 181.834039 289.242023 
L 182.484649 289.276991 
L 183.13526 290.158872 
L 183.78587 290.014016 
L 184.43648 287.425036 
L 185.087091 288.934765 
L 185.737701 288.750084 
L 186.388311 290.853498 
L 187.038921 288.432127 
L 187.689532 290.700237 
L 188.340142 289.127802 
L 188.990752 288.099815 
L 189.641363 290.857747 
L 190.291973 288.814818 
L 190.942583 288.650356 
L 191.593194 289.1025 
L 192.243804 289.84661 
L 192.894414 289.652057 
L 193.545025 290.020753 
L 194.195635 289.111798 
L 194.846245 290.026885 
L 195.496856 288.74843 
L 196.147466 290.621221 
L 196.798076 289.621158 
L 197.448686 290.225209 
L 198.099297 289.150621 
L 198.749907 289.003273 
L 199.400517 290.02602 
L 200.051128 290.280239 
L 200.701738 290.168981 
L 201.352348 290.459106 
L 202.002959 290.294418 
L 202.653569 290.824732 
L 203.304179 289.382324 
L 203.95479 290.469131 
L 204.6054 290.056437 
L 205.25601 289.407729 
L 205.906621 289.260328 
L 206.557231 290.906201 
L 207.207841 290.516555 
L 207.858451 289.53859 
L 208.509062 289.920324 
L 209.159672 291.301953 
L 209.810282 289.678202 
L 210.460893 290.335836 
L 211.111503 290.564415 
L 211.762113 289.953811 
L 212.412724 289.104353 
L 213.063334 289.155432 
L 213.713944 289.96371 
L 214.364555 288.802009 
L 215.015165 289.966393 
L 215.665775 290.33979 
L 216.316385 289.891653 
L 216.966996 290.879919 
L 217.617606 291.568436 
L 218.268216 289.710938 
L 218.918827 290.402135 
L 219.569437 289.037341 
L 220.220047 289.054234 
L 220.870658 288.625466 
L 221.521268 290.231204 
L 222.171878 289.669405 
L 223.473099 290.740476 
L 224.123709 290.771803 
L 224.77432 288.261 
L 225.42493 289.115974 
L 226.07554 290.638439 
L 226.72615 290.915656 
L 227.376761 290.313132 
L 228.027371 289.404303 
L 228.677981 289.147907 
L 229.328592 288.455462 
L 229.979202 289.531417 
L 230.629812 291.17804 
L 231.280423 290.155717 
L 231.931033 288.35638 
L 232.581643 290.908421 
L 233.232254 289.881716 
L 233.882864 291.160975 
L 234.533474 290.016688 
L 235.184085 290.100994 
L 235.834695 289.778049 
L 237.135915 290.669702 
L 237.786526 290.289273 
L 238.437136 291.003774 
L 239.087746 290.681847 
L 239.738357 289.886187 
L 240.388967 289.309475 
L 241.039577 291.371858 
L 241.690188 288.684677 
L 242.340798 290.200148 
L 242.991408 289.164807 
L 243.642019 289.348094 
L 244.292629 290.20721 
L 244.943239 289.640428 
L 245.59385 291.022072 
L 246.24446 290.692757 
L 246.89507 290.488477 
L 247.54568 290.474069 
L 248.196291 290.857081 
L 248.846901 289.947621 
L 249.497511 290.669196 
L 250.148122 290.587421 
L 250.798732 289.114294 
L 252.099953 291.03589 
L 252.750563 291.096597 
L 253.401173 291.560643 
L 254.051784 290.234687 
L 254.702394 289.515883 
L 255.353004 289.44708 
L 256.003615 290.935844 
L 256.654225 290.620835 
L 257.304835 291.607932 
L 257.955445 289.802249 
L 258.606056 291.183602 
L 259.256666 291.596361 
L 259.907276 290.417171 
L 260.557887 289.886152 
L 261.208497 289.882481 
L 261.859107 290.561713 
L 263.160328 291.491817 
L 263.810938 290.68313 
L 264.461549 290.470448 
L 265.762769 288.889006 
L 266.413379 292.671922 
L 267.06399 289.71026 
L 267.7146 290.252357 
L 268.36521 291.013872 
L 269.015821 290.137573 
L 269.666431 291.531413 
L 270.317041 289.588089 
L 271.618262 290.33577 
L 272.268872 290.120757 
L 272.919483 290.897374 
L 273.570093 290.905393 
L 274.220703 289.682917 
L 274.871314 291.923222 
L 275.521924 290.40519 
L 276.172534 290.982629 
L 276.823144 290.816345 
L 277.473755 290.454018 
L 278.124365 290.978434 
L 278.774975 291.26597 
L 279.425586 290.455312 
L 280.076196 290.267247 
L 280.726806 291.141361 
L 282.028027 290.523357 
L 282.678637 291.294672 
L 283.329248 290.28814 
L 283.979858 290.31257 
L 284.630468 290.703399 
L 285.281079 291.322053 
L 285.931689 290.91267 
L 286.582299 292.242871 
L 287.232909 291.892346 
L 288.53413 289.470618 
L 289.18474 290.017603 
L 289.835351 291.908167 
L 290.485961 288.681074 
L 291.136571 290.390475 
L 291.787182 291.747349 
L 292.437792 291.284321 
L 293.088402 291.256071 
L 293.739013 290.987858 
L 294.389623 292.095171 
L 295.040233 291.432622 
L 295.690844 290.492393 
L 296.341454 290.792811 
L 296.992064 289.185814 
L 297.642674 291.992951 
L 298.293285 290.880922 
L 298.943895 290.989998 
L 299.594505 290.392106 
L 300.245116 292.71881 
L 300.895726 290.803713 
L 302.196947 291.914238 
L 302.847557 292.251174 
L 303.498167 293.40753 
L 304.148778 290.742642 
L 304.799388 291.476272 
L 305.449998 291.692223 
L 306.100608 292.144084 
L 306.751219 291.657825 
L 307.401829 293.757067 
L 308.052439 291.980449 
L 308.70305 292.680132 
L 309.35366 292.759822 
L 310.00427 292.283898 
L 310.654881 292.669724 
L 311.305491 291.824917 
L 311.956101 292.112136 
L 312.606712 291.934131 
L 313.257322 291.600422 
L 314.558543 292.287282 
L 315.209153 291.627233 
L 315.859763 290.160479 
L 316.510373 291.468742 
L 317.160984 290.866835 
L 317.811594 292.831951 
L 318.462204 290.752296 
L 319.112815 292.788412 
L 319.763425 291.93136 
L 320.414035 292.311731 
L 321.064646 291.564042 
L 321.715256 290.029274 
L 322.365866 293.734364 
L 323.016477 294.417437 
L 323.667087 292.003255 
L 324.317697 290.511383 
L 324.968308 293.423002 
L 325.618918 292.169425 
L 326.269528 292.796317 
L 326.920138 291.893142 
L 327.570749 293.815263 
L 328.221359 292.42725 
L 328.871969 292.021993 
L 329.52258 292.610721 
L 330.17319 292.247568 
L 330.8238 292.63628 
L 331.474411 291.99186 
L 332.125021 291.176853 
L 332.775631 291.962106 
L 334.076852 292.215283 
L 334.727462 292.827798 
L 335.378073 291.446445 
L 336.028683 292.477169 
L 336.679293 293.003357 
L 337.329903 290.879394 
L 337.980514 293.035347 
L 338.631124 291.874179 
L 339.281734 292.629087 
L 339.932345 291.63299 
L 340.582955 291.971346 
L 341.233565 293.530096 
L 341.884176 293.335412 
L 342.534786 292.591428 
L 343.185396 294.142327 
L 343.836007 292.044383 
L 344.486617 291.882921 
L 345.137227 292.406701 
L 345.787837 292.557942 
L 346.438448 293.667988 
L 347.089058 293.090495 
L 347.739668 294.368811 
L 348.390279 292.089487 
L 349.040889 292.928835 
L 349.691499 292.547652 
L 350.34211 293.295388 
L 350.99272 293.686917 
L 351.64333 292.713799 
L 352.293941 293.549358 
L 352.944551 293.103533 
L 353.595161 293.870932 
L 354.245772 293.768945 
L 354.896382 293.136698 
L 355.546992 293.428254 
L 356.197602 294.373284 
L 356.848213 292.856783 
L 357.498823 293.022301 
L 358.149433 294.765131 
L 358.800044 292.326645 
L 359.450654 293.893375 
L 360.101264 293.719217 
L 360.751875 292.951297 
L 361.402485 293.27856 
L 362.053095 293.169105 
L 362.703706 294.173218 
L 363.354316 293.908725 
L 364.004926 293.160014 
L 365.306147 293.726142 
L 365.956757 292.923798 
L 366.607367 294.871326 
L 367.257978 293.801291 
L 367.908588 293.890834 
L 368.559198 292.916161 
L 369.209809 293.945404 
L 369.860419 291.7907 
L 370.511029 294.397531 
L 371.16164 293.705685 
L 371.81225 295.156159 
L 372.46286 293.991714 
L 373.113471 293.065361 
L 373.764081 292.988022 
L 374.414691 293.81818 
L 375.065302 293.64842 
L 375.715912 293.291724 
L 376.366522 294.094769 
L 377.017132 294.433766 
L 377.667743 293.170211 
L 378.318353 294.422275 
L 378.968963 294.985174 
L 379.619574 293.473837 
L 380.270184 295.362391 
L 380.920794 293.247091 
L 381.571405 294.548952 
L 382.222015 293.918031 
L 382.872625 294.878316 
L 383.523236 293.912967 
L 384.173846 294.135127 
L 384.824456 295.22389 
L 385.475066 293.855713 
L 386.125677 293.820002 
L 386.776287 294.508277 
L 387.426897 294.252804 
L 388.077508 294.478916 
L 388.728118 295.13826 
L 389.378728 295.293181 
L 390.029339 294.612652 
L 390.679949 295.413166 
L 391.330559 294.848845 
L 391.98117 294.614528 
L 392.63178 295.488 
L 393.28239 294.781363 
L 393.933001 292.766264 
L 394.583611 295.222942 
L 395.234221 295.437106 
L 395.884831 294.732079 
L 396.535442 294.793031 
L 397.186052 294.513881 
L 397.836662 295.014756 
L 398.487273 293.405991 
L 398.487273 293.405991 
" style="fill:none;stroke:#ff7f0e;stroke-linecap:square;stroke-width:1.5;"/>
   </g>
   <g id="patch_3">
    <path d="M 57.6 307.584 
L 57.6 41.472 
" style="fill:none;stroke:#000000;stroke-linecap:square;stroke-linejoin:miter;stroke-width:0.8;"/>
   </g>
   <g id="patch_4">
    <path d="M 414.72 307.584 
L 414.72 41.472 
" style="fill:none;stroke:#000000;stroke-linecap:square;stroke-linejoin:miter;stroke-width:0.8;"/>
   </g>
   <g id="patch_5">
    <path d="M 57.6 307.584 
L 414.72 307.584 
" style="fill:none;stroke:#000000;stroke-linecap:square;stroke-linejoin:miter;stroke-width:0.8;"/>
   </g>
   <g id="patch_6">
    <path d="M 57.6 41.472 
L 414.72 41.472 
" style="fill:none;stroke:#000000;stroke-linecap:square;stroke-linejoin:miter;stroke-width:0.8;"/>
   </g>
   <g id="text_14">
    <!-- Question 1: Losses -->
    <g transform="translate(179.693438 35.472)scale(0.12 -0.12)">
     <defs>
      <path d="M 2522 4238 
Q 1834 4238 1429 3725 
Q 1025 3213 1025 2328 
Q 1025 1447 1429 934 
Q 1834 422 2522 422 
Q 3209 422 3611 934 
Q 4013 1447 4013 2328 
Q 4013 3213 3611 3725 
Q 3209 4238 2522 4238 
z
M 3406 84 
L 4238 -825 
L 3475 -825 
L 2784 -78 
Q 2681 -84 2626 -87 
Q 2572 -91 2522 -91 
Q 1538 -91 948 567 
Q 359 1225 359 2328 
Q 359 3434 948 4092 
Q 1538 4750 2522 4750 
Q 3503 4750 4090 4092 
Q 4678 3434 4678 2328 
Q 4678 1516 4351 937 
Q 4025 359 3406 84 
z
" id="DejaVuSans-51" transform="scale(0.015625)"/>
      <path d="M 544 1381 
L 544 3500 
L 1119 3500 
L 1119 1403 
Q 1119 906 1312 657 
Q 1506 409 1894 409 
Q 2359 409 2629 706 
Q 2900 1003 2900 1516 
L 2900 3500 
L 3475 3500 
L 3475 0 
L 2900 0 
L 2900 538 
Q 2691 219 2414 64 
Q 2138 -91 1772 -91 
Q 1169 -91 856 284 
Q 544 659 544 1381 
z
M 1991 3584 
L 1991 3584 
z
" id="DejaVuSans-75" transform="scale(0.015625)"/>
      <path d="M 603 3500 
L 1178 3500 
L 1178 0 
L 603 0 
L 603 3500 
z
M 603 4863 
L 1178 4863 
L 1178 4134 
L 603 4134 
L 603 4863 
z
" id="DejaVuSans-69" transform="scale(0.015625)"/>
      <path d="M 3513 2113 
L 3513 0 
L 2938 0 
L 2938 2094 
Q 2938 2591 2744 2837 
Q 2550 3084 2163 3084 
Q 1697 3084 1428 2787 
Q 1159 2491 1159 1978 
L 1159 0 
L 581 0 
L 581 3500 
L 1159 3500 
L 1159 2956 
Q 1366 3272 1645 3428 
Q 1925 3584 2291 3584 
Q 2894 3584 3203 3211 
Q 3513 2838 3513 2113 
z
" id="DejaVuSans-6e" transform="scale(0.015625)"/>
      <path d="M 750 794 
L 1409 794 
L 1409 0 
L 750 0 
L 750 794 
z
M 750 3309 
L 1409 3309 
L 1409 2516 
L 750 2516 
L 750 3309 
z
" id="DejaVuSans-3a" transform="scale(0.015625)"/>
     </defs>
     <use xlink:href="#DejaVuSans-51"/>
     <use x="78.710938" xlink:href="#DejaVuSans-75"/>
     <use x="142.089844" xlink:href="#DejaVuSans-65"/>
     <use x="203.613281" xlink:href="#DejaVuSans-73"/>
     <use x="255.712891" xlink:href="#DejaVuSans-74"/>
     <use x="294.921875" xlink:href="#DejaVuSans-69"/>
     <use x="322.705078" xlink:href="#DejaVuSans-6f"/>
     <use x="383.886719" xlink:href="#DejaVuSans-6e"/>
     <use x="447.265625" xlink:href="#DejaVuSans-20"/>
     <use x="479.052734" xlink:href="#DejaVuSans-31"/>
     <use x="542.675781" xlink:href="#DejaVuSans-3a"/>
     <use x="576.367188" xlink:href="#DejaVuSans-20"/>
     <use x="608.154297" xlink:href="#DejaVuSans-4c"/>
     <use x="662.117188" xlink:href="#DejaVuSans-6f"/>
     <use x="723.298828" xlink:href="#DejaVuSans-73"/>
     <use x="775.398438" xlink:href="#DejaVuSans-73"/>
     <use x="827.498047" xlink:href="#DejaVuSans-65"/>
     <use x="889.021484" xlink:href="#DejaVuSans-73"/>
    </g>
   </g>
   <g id="legend_1">
    <g id="patch_7">
     <path d="M 273.960625 78.82825 
L 407.72 78.82825 
Q 409.72 78.82825 409.72 76.82825 
L 409.72 48.472 
Q 409.72 46.472 407.72 46.472 
L 273.960625 46.472 
Q 271.960625 46.472 271.960625 48.472 
L 271.960625 76.82825 
Q 271.960625 78.82825 273.960625 78.82825 
z
" style="fill:#ffffff;opacity:0.8;stroke:#cccccc;stroke-linejoin:miter;"/>
    </g>
    <g id="line2d_14">
     <path d="M 275.960625 54.570437 
L 295.960625 54.570437 
" style="fill:none;stroke:#1f77b4;stroke-linecap:square;stroke-width:1.5;"/>
    </g>
    <g id="line2d_15"/>
    <g id="text_15">
     <!-- n=500, arch=1x32 -->
     <g transform="translate(303.960625 58.070437)scale(0.1 -0.1)">
      <defs>
       <path d="M 678 2906 
L 4684 2906 
L 4684 2381 
L 678 2381 
L 678 2906 
z
M 678 1631 
L 4684 1631 
L 4684 1100 
L 678 1100 
L 678 1631 
z
" id="DejaVuSans-3d" transform="scale(0.015625)"/>
       <path d="M 750 794 
L 1409 794 
L 1409 256 
L 897 -744 
L 494 -744 
L 750 256 
L 750 794 
z
" id="DejaVuSans-2c" transform="scale(0.015625)"/>
       <path d="M 2194 1759 
Q 1497 1759 1228 1600 
Q 959 1441 959 1056 
Q 959 750 1161 570 
Q 1363 391 1709 391 
Q 2188 391 2477 730 
Q 2766 1069 2766 1631 
L 2766 1759 
L 2194 1759 
z
M 3341 1997 
L 3341 0 
L 2766 0 
L 2766 531 
Q 2569 213 2275 61 
Q 1981 -91 1556 -91 
Q 1019 -91 701 211 
Q 384 513 384 1019 
Q 384 1609 779 1909 
Q 1175 2209 1959 2209 
L 2766 2209 
L 2766 2266 
Q 2766 2663 2505 2880 
Q 2244 3097 1772 3097 
Q 1472 3097 1187 3025 
Q 903 2953 641 2809 
L 641 3341 
Q 956 3463 1253 3523 
Q 1550 3584 1831 3584 
Q 2591 3584 2966 3190 
Q 3341 2797 3341 1997 
z
" id="DejaVuSans-61" transform="scale(0.015625)"/>
       <path d="M 2631 2963 
Q 2534 3019 2420 3045 
Q 2306 3072 2169 3072 
Q 1681 3072 1420 2755 
Q 1159 2438 1159 1844 
L 1159 0 
L 581 0 
L 581 3500 
L 1159 3500 
L 1159 2956 
Q 1341 3275 1631 3429 
Q 1922 3584 2338 3584 
Q 2397 3584 2469 3576 
Q 2541 3569 2628 3553 
L 2631 2963 
z
" id="DejaVuSans-72" transform="scale(0.015625)"/>
       <path d="M 3122 3366 
L 3122 2828 
Q 2878 2963 2633 3030 
Q 2388 3097 2138 3097 
Q 1578 3097 1268 2742 
Q 959 2388 959 1747 
Q 959 1106 1268 751 
Q 1578 397 2138 397 
Q 2388 397 2633 464 
Q 2878 531 3122 666 
L 3122 134 
Q 2881 22 2623 -34 
Q 2366 -91 2075 -91 
Q 1284 -91 818 406 
Q 353 903 353 1747 
Q 353 2603 823 3093 
Q 1294 3584 2113 3584 
Q 2378 3584 2631 3529 
Q 2884 3475 3122 3366 
z
" id="DejaVuSans-63" transform="scale(0.015625)"/>
       <path d="M 3513 2113 
L 3513 0 
L 2938 0 
L 2938 2094 
Q 2938 2591 2744 2837 
Q 2550 3084 2163 3084 
Q 1697 3084 1428 2787 
Q 1159 2491 1159 1978 
L 1159 0 
L 581 0 
L 581 4863 
L 1159 4863 
L 1159 2956 
Q 1366 3272 1645 3428 
Q 1925 3584 2291 3584 
Q 2894 3584 3203 3211 
Q 3513 2838 3513 2113 
z
" id="DejaVuSans-68" transform="scale(0.015625)"/>
       <path d="M 3513 3500 
L 2247 1797 
L 3578 0 
L 2900 0 
L 1881 1375 
L 863 0 
L 184 0 
L 1544 1831 
L 300 3500 
L 978 3500 
L 1906 2253 
L 2834 3500 
L 3513 3500 
z
" id="DejaVuSans-78" transform="scale(0.015625)"/>
      </defs>
      <use xlink:href="#DejaVuSans-6e"/>
      <use x="63.378906" xlink:href="#DejaVuSans-3d"/>
      <use x="147.167969" xlink:href="#DejaVuSans-35"/>
      <use x="210.791016" xlink:href="#DejaVuSans-30"/>
      <use x="274.414062" xlink:href="#DejaVuSans-30"/>
      <use x="338.037109" xlink:href="#DejaVuSans-2c"/>
      <use x="369.824219" xlink:href="#DejaVuSans-20"/>
      <use x="401.611328" xlink:href="#DejaVuSans-61"/>
      <use x="462.890625" xlink:href="#DejaVuSans-72"/>
      <use x="501.753906" xlink:href="#DejaVuSans-63"/>
      <use x="556.734375" xlink:href="#DejaVuSans-68"/>
      <use x="620.113281" xlink:href="#DejaVuSans-3d"/>
      <use x="703.902344" xlink:href="#DejaVuSans-31"/>
      <use x="767.525391" xlink:href="#DejaVuSans-78"/>
      <use x="826.705078" xlink:href="#DejaVuSans-33"/>
      <use x="890.328125" xlink:href="#DejaVuSans-32"/>
     </g>
    </g>
    <g id="line2d_16">
     <path d="M 275.960625 69.248562 
L 295.960625 69.248562 
" style="fill:none;stroke:#ff7f0e;stroke-linecap:square;stroke-width:1.5;"/>
    </g>
    <g id="line2d_17"/>
    <g id="text_16">
     <!-- n=500, arch=2x250 -->
     <g transform="translate(303.960625 72.748562)scale(0.1 -0.1)">
      <use xlink:href="#DejaVuSans-6e"/>
      <use x="63.378906" xlink:href="#DejaVuSans-3d"/>
      <use x="147.167969" xlink:href="#DejaVuSans-35"/>
      <use x="210.791016" xlink:href="#DejaVuSans-30"/>
      <use x="274.414062" xlink:href="#DejaVuSans-30"/>
      <use x="338.037109" xlink:href="#DejaVuSans-2c"/>
      <use x="369.824219" xlink:href="#DejaVuSans-20"/>
      <use x="401.611328" xlink:href="#DejaVuSans-61"/>
      <use x="462.890625" xlink:href="#DejaVuSans-72"/>
      <use x="501.753906" xlink:href="#DejaVuSans-63"/>
      <use x="556.734375" xlink:href="#DejaVuSans-68"/>
      <use x="620.113281" xlink:href="#DejaVuSans-3d"/>
      <use x="703.902344" xlink:href="#DejaVuSans-32"/>
      <use x="767.525391" xlink:href="#DejaVuSans-78"/>
      <use x="826.705078" xlink:href="#DejaVuSans-32"/>
      <use x="890.328125" xlink:href="#DejaVuSans-35"/>
      <use x="953.951172" xlink:href="#DejaVuSans-30"/>
     </g>
    </g>
   </g>
  </g>
 </g>
 <defs>
  <clipPath id="p68b4cc0ec9">
   <rect height="266.112" width="357.12" x="57.6" y="41.472"/>
  </clipPath>
 </defs>
</svg>
