<?xml version="1.0" encoding="utf-8" standalone="no"?>
<!DOCTYPE svg PUBLIC "-//W3C//DTD SVG 1.1//EN"
  "http://www.w3.org/Graphics/SVG/1.1/DTD/svg11.dtd">
<svg height="345.6pt" version="1.1" viewBox="0 0 460.8 345.6" width="460.8pt" xmlns="http://www.w3.org/2000/svg" xmlns:xlink="http://www.w3.org/1999/xlink">
 <metadata>
  <rdf:RDF xmlns:cc="http://creativecommons.org/ns#" xmlns:dc="http://purl.org/dc/elements/1.1/" xmlns:rdf="http://www.w3.org/1999/02/22-rdf-syntax-ns#">
   <cc:Work>
    <dc:type rdf:resource="http://purl.org/dc/dcmitype/StillImage"/>
    <dc:date>2021-09-30T11:58:53.158062</dc:date>
    <dc:format>image/svg+xml</dc:format>
    <dc:creator>
     <cc:Agent>
      <dc:title>Matplotlib v3.4.3, https://matplotlib.org/</dc:title>
     </cc:Agent>
    </dc:creator>
   </cc:Work>
  </rdf:RDF>
 </metadata>
 <defs>
  <style type="text/css">*{stroke-linecap:butt;stroke-linejoin:round;}</style>
 </defs>
 <g id="figure_1">
  <g id="patch_1">
   <path d="M 0 345.6 
L 460.8 345.6 
L 460.8 0 
L 0 0 
z
" style="fill:#ffffff;"/>
  </g>
  <g id="axes_1">
   <g id="patch_2">
    <path d="M 57.6 307.584 
L 414.72 307.584 
L 414.72 41.472 
L 57.6 41.472 
z
" style="fill:#ffffff;"/>
   </g>
   <g id="PolyCollection_1">
    <path clip-path="url(#p6bbcf5bb6b)" d="M 73.832727 230.599437 
L 73.832727 247.196398 
L 77.112066 241.75636 
L 80.391405 259.906944 
L 83.670744 257.537514 
L 86.950083 264.06288 
L 90.229421 264.880121 
L 93.50876 245.325765 
L 96.788099 257.535499 
L 100.067438 253.639682 
L 103.346777 253.127055 
L 106.626116 249.211694 
L 109.905455 261.627368 
L 113.184793 257.895695 
L 116.464132 259.709256 
L 119.743471 268.35006 
L 123.02281 229.415077 
L 126.302149 261.231875 
L 129.581488 226.33285 
L 132.860826 250.58211 
L 136.140165 246.355401 
L 139.419504 229.452527 
L 142.698843 220.927802 
L 145.978182 238.112523 
L 149.257521 241.861772 
L 152.53686 247.185923 
L 155.816198 270.282942 
L 159.095537 227.169163 
L 162.374876 267.693127 
L 165.654215 251.313799 
L 168.933554 289.682906 
L 172.212893 251.205294 
L 175.492231 259.245173 
L 178.77157 237.23733 
L 182.050909 249.712291 
L 185.330248 230.242057 
L 188.609587 258.901066 
L 191.888926 274.588095 
L 195.168264 283.191216 
L 198.447603 260.320476 
L 201.726942 223.830311 
L 205.006281 250.680867 
L 208.28562 255.902378 
L 211.564959 227.728977 
L 214.844298 239.127669 
L 218.123636 231.623659 
L 221.402975 232.217929 
L 224.682314 223.229692 
L 227.961653 225.93521 
L 231.240992 208.053712 
L 234.520331 220.41492 
L 237.799669 217.502267 
L 241.079008 217.77311 
L 244.358347 216.134836 
L 247.637686 220.546066 
L 250.917025 219.911875 
L 254.196364 220.261741 
L 257.475702 207.083863 
L 260.755041 210.92008 
L 264.03438 227.85956 
L 267.313719 235.762775 
L 270.593058 227.931791 
L 273.872397 264.704409 
L 277.151736 238.205133 
L 280.431074 210.425162 
L 283.710413 223.698291 
L 286.989752 233.197337 
L 290.269091 217.354818 
L 293.54843 217.647887 
L 296.827769 295.488 
L 300.107107 254.314437 
L 303.386446 216.893364 
L 306.665785 217.657269 
L 309.945124 228.174287 
L 313.224463 213.945554 
L 316.503802 240.661289 
L 319.78314 212.752248 
L 323.062479 228.320974 
L 326.341818 217.458286 
L 329.621157 231.511088 
L 332.900496 236.53067 
L 336.179835 233.57254 
L 339.459174 226.053346 
L 342.738512 233.902867 
L 346.017851 223.149808 
L 349.29719 226.459456 
L 352.576529 239.630959 
L 355.855868 244.744589 
L 359.135207 234.075459 
L 362.414545 228.131002 
L 365.693884 235.802098 
L 368.973223 238.444015 
L 372.252562 220.297347 
L 375.531901 229.674089 
L 378.81124 225.304299 
L 382.090579 232.136082 
L 385.369917 208.38961 
L 388.649256 211.681597 
L 391.928595 190.20138 
L 395.207934 199.790721 
L 398.487273 207.484684 
L 398.487273 174.971422 
L 398.487273 174.971422 
L 395.207934 185.861896 
L 391.928595 182.493678 
L 388.649256 187.138877 
L 385.369917 207.355095 
L 382.090579 217.228295 
L 378.81124 223.223756 
L 375.531901 217.80243 
L 372.252562 206.930058 
L 368.973223 205.299464 
L 365.693884 222.782942 
L 362.414545 226.694685 
L 359.135207 228.285656 
L 355.855868 234.702572 
L 352.576529 216.282274 
L 349.29719 206.260514 
L 346.017851 191.348791 
L 342.738512 193.612415 
L 339.459174 207.445008 
L 336.179835 202.357964 
L 332.900496 215.496252 
L 329.621157 223.625063 
L 326.341818 210.554636 
L 323.062479 210.916439 
L 319.78314 201.581575 
L 316.503802 192.396714 
L 313.224463 209.260296 
L 309.945124 203.034248 
L 306.665785 199.33152 
L 303.386446 184.815878 
L 300.107107 201.169457 
L 296.827769 281.569709 
L 293.54843 186.220622 
L 290.269091 202.694175 
L 286.989752 195.150696 
L 283.710413 199.0473 
L 280.431074 195.707757 
L 277.151736 215.99179 
L 273.872397 185.317911 
L 270.593058 211.389055 
L 267.313719 205.110005 
L 264.03438 222.849967 
L 260.755041 203.035085 
L 257.475702 204.846791 
L 254.196364 204.862522 
L 250.917025 210.369461 
L 247.637686 205.064005 
L 244.358347 199.424446 
L 241.079008 212.034529 
L 237.799669 203.893513 
L 234.520331 202.467408 
L 231.240992 190.272664 
L 227.961653 207.776779 
L 224.682314 211.37069 
L 221.402975 215.007203 
L 218.123636 204.011676 
L 214.844298 223.494959 
L 211.564959 173.790467 
L 208.28562 195.915777 
L 205.006281 211.935924 
L 201.726942 203.687216 
L 198.447603 216.218659 
L 195.168264 214.025641 
L 191.888926 225.843427 
L 188.609587 231.195881 
L 185.330248 213.537287 
L 182.050909 221.434685 
L 178.77157 205.594255 
L 175.492231 211.494583 
L 172.212893 224.641969 
L 168.933554 225.77188 
L 165.654215 201.646101 
L 162.374876 202.01732 
L 159.095537 211.802868 
L 155.816198 216.856492 
L 152.53686 233.212734 
L 149.257521 224.763483 
L 145.978182 224.867571 
L 142.698843 206.481732 
L 139.419504 200.433595 
L 136.140165 220.52507 
L 132.860826 207.804115 
L 129.581488 216.106748 
L 126.302149 220.656563 
L 123.02281 218.691887 
L 119.743471 235.079174 
L 116.464132 226.841134 
L 113.184793 246.429306 
L 109.905455 243.338862 
L 106.626116 231.983222 
L 103.346777 230.155639 
L 100.067438 232.046776 
L 96.788099 233.590883 
L 93.50876 229.22513 
L 90.229421 232.289389 
L 86.950083 239.747023 
L 83.670744 246.261827 
L 80.391405 223.34728 
L 77.112066 215.653128 
L 73.832727 230.599437 
z
" style="fill:#1f77b4;fill-opacity:0.2;"/>
   </g>
   <g id="PolyCollection_2">
    <path clip-path="url(#p6bbcf5bb6b)" d="M 73.832727 216.480893 
L 73.832727 269.672208 
L 77.112066 254.082915 
L 80.391405 253.267899 
L 83.670744 247.694589 
L 86.950083 248.035683 
L 90.229421 270.389681 
L 93.50876 252.037066 
L 96.788099 279.667933 
L 100.067438 266.758011 
L 103.346777 281.13597 
L 106.626116 242.258311 
L 109.905455 255.558001 
L 113.184793 260.435139 
L 116.464132 287.900963 
L 119.743471 242.695544 
L 123.02281 247.462306 
L 126.302149 256.343148 
L 129.581488 245.752269 
L 132.860826 242.692884 
L 136.140165 259.267702 
L 139.419504 245.653626 
L 142.698843 248.295924 
L 145.978182 263.711837 
L 149.257521 258.56846 
L 152.53686 249.343412 
L 155.816198 255.192041 
L 159.095537 250.392108 
L 162.374876 258.555371 
L 165.654215 233.544329 
L 168.933554 254.583463 
L 172.212893 248.753286 
L 175.492231 242.496819 
L 178.77157 259.930311 
L 182.050909 234.699659 
L 185.330248 265.347773 
L 188.609587 268.156058 
L 191.888926 248.401819 
L 195.168264 260.632269 
L 198.447603 241.266369 
L 201.726942 265.432056 
L 205.006281 239.342875 
L 208.28562 236.854573 
L 211.564959 232.084789 
L 214.844298 227.304271 
L 218.123636 220.514797 
L 221.402975 228.478985 
L 224.682314 235.921351 
L 227.961653 253.563477 
L 231.240992 226.489239 
L 234.520331 236.913749 
L 237.799669 252.196781 
L 241.079008 238.407169 
L 244.358347 226.74592 
L 247.637686 244.95065 
L 250.917025 224.334625 
L 254.196364 241.349737 
L 257.475702 233.053669 
L 260.755041 214.821808 
L 264.03438 232.509967 
L 267.313719 217.296864 
L 270.593058 227.465336 
L 273.872397 215.088383 
L 277.151736 217.779668 
L 280.431074 215.460348 
L 283.710413 220.354567 
L 286.989752 242.914973 
L 290.269091 233.140467 
L 293.54843 233.9331 
L 296.827769 237.200073 
L 300.107107 235.172288 
L 303.386446 232.461697 
L 306.665785 223.684697 
L 309.945124 223.941005 
L 313.224463 230.272632 
L 316.503802 212.742355 
L 319.78314 223.056918 
L 323.062479 213.040586 
L 326.341818 222.758292 
L 329.621157 226.880226 
L 332.900496 236.775619 
L 336.179835 240.390627 
L 339.459174 218.585835 
L 342.738512 245.353284 
L 346.017851 224.677577 
L 349.29719 207.857385 
L 352.576529 249.729157 
L 355.855868 241.953771 
L 359.135207 227.17774 
L 362.414545 226.702659 
L 365.693884 259.971636 
L 368.973223 207.909043 
L 372.252562 217.046468 
L 375.531901 217.081534 
L 378.81124 228.109889 
L 382.090579 245.95106 
L 385.369917 216.614202 
L 388.649256 226.176259 
L 391.928595 232.6911 
L 395.207934 228.841939 
L 398.487273 222.967882 
L 398.487273 207.423622 
L 398.487273 207.423622 
L 395.207934 205.849305 
L 391.928595 217.373903 
L 388.649256 193.09656 
L 385.369917 214.929972 
L 382.090579 213.855116 
L 378.81124 211.915773 
L 375.531901 188.611251 
L 372.252562 206.098532 
L 368.973223 187.723342 
L 365.693884 196.172717 
L 362.414545 215.922199 
L 359.135207 209.485537 
L 355.855868 233.512353 
L 352.576529 189.764181 
L 349.29719 203.095072 
L 346.017851 209.646541 
L 342.738512 228.035087 
L 339.459174 213.365273 
L 336.179835 204.774691 
L 332.900496 219.795447 
L 329.621157 205.130099 
L 326.341818 194.493025 
L 323.062479 194.449177 
L 319.78314 201.366302 
L 316.503802 190.420026 
L 313.224463 200.755759 
L 309.945124 201.302605 
L 306.665785 206.117983 
L 303.386446 218.169302 
L 300.107107 209.665213 
L 296.827769 205.571486 
L 293.54843 199.030115 
L 290.269091 194.607644 
L 286.989752 223.788957 
L 283.710413 197.073124 
L 280.431074 186.413338 
L 277.151736 192.695787 
L 273.872397 195.903976 
L 270.593058 219.946902 
L 267.313719 203.980476 
L 264.03438 218.205735 
L 260.755041 200.709741 
L 257.475702 205.191477 
L 254.196364 218.25984 
L 250.917025 220.137529 
L 247.637686 204.587952 
L 244.358347 215.279206 
L 241.079008 207.652909 
L 237.799669 218.878042 
L 234.520331 219.777133 
L 231.240992 218.789133 
L 227.961653 212.09182 
L 224.682314 194.068161 
L 221.402975 210.231249 
L 218.123636 208.906794 
L 214.844298 224.233218 
L 211.564959 228.834566 
L 208.28562 207.972091 
L 205.006281 223.916098 
L 201.726942 225.489041 
L 198.447603 226.9287 
L 195.168264 225.710686 
L 191.888926 218.199446 
L 188.609587 225.34865 
L 185.330248 232.892537 
L 182.050909 222.987207 
L 178.77157 196.751736 
L 175.492231 238.781575 
L 172.212893 224.559299 
L 168.933554 217.18537 
L 165.654215 223.68909 
L 162.374876 224.215275 
L 159.095537 228.6026 
L 155.816198 230.483837 
L 152.53686 227.881601 
L 149.257521 236.37158 
L 145.978182 232.204124 
L 142.698843 227.414283 
L 139.419504 241.363502 
L 136.140165 246.194986 
L 132.860826 231.300164 
L 129.581488 226.972224 
L 126.302149 243.582533 
L 123.02281 241.891431 
L 119.743471 219.799685 
L 116.464132 219.48427 
L 113.184793 217.157818 
L 109.905455 243.920136 
L 106.626116 225.115444 
L 103.346777 230.968292 
L 100.067438 241.971932 
L 96.788099 213.099993 
L 93.50876 230.005566 
L 90.229421 244.671419 
L 86.950083 232.249371 
L 83.670744 221.179937 
L 80.391405 243.094629 
L 77.112066 229.093759 
L 73.832727 216.480893 
z
" style="fill:#ff7f0e;fill-opacity:0.2;"/>
   </g>
   <g id="PolyCollection_3">
    <path clip-path="url(#p6bbcf5bb6b)" d="M 73.832727 210.892721 
L 73.832727 229.253762 
L 77.112066 234.959831 
L 80.391405 254.039796 
L 83.670744 246.382508 
L 86.950083 227.401469 
L 90.229421 223.232192 
L 93.50876 230.776146 
L 96.788099 225.193529 
L 100.067438 220.74469 
L 103.346777 228.10895 
L 106.626116 227.856192 
L 109.905455 215.04105 
L 113.184793 224.707581 
L 116.464132 219.977778 
L 119.743471 242.275897 
L 123.02281 240.157087 
L 126.302149 220.470456 
L 129.581488 222.159186 
L 132.860826 222.018775 
L 136.140165 233.244436 
L 139.419504 207.253227 
L 142.698843 215.22371 
L 145.978182 219.746736 
L 149.257521 216.592794 
L 152.53686 218.696879 
L 155.816198 212.022641 
L 159.095537 225.533303 
L 162.374876 212.458278 
L 165.654215 205.369644 
L 168.933554 208.020587 
L 172.212893 202.782222 
L 175.492231 208.45919 
L 178.77157 208.383859 
L 182.050909 200.550733 
L 185.330248 198.351856 
L 188.609587 200.196081 
L 191.888926 214.034962 
L 195.168264 202.427554 
L 198.447603 194.434861 
L 201.726942 192.087498 
L 205.006281 186.664854 
L 208.28562 189.687928 
L 211.564959 194.27592 
L 214.844298 199.120465 
L 218.123636 189.847032 
L 221.402975 194.356261 
L 224.682314 199.195294 
L 227.961653 194.990079 
L 231.240992 184.355237 
L 234.520331 178.537073 
L 237.799669 171.647276 
L 241.079008 181.282719 
L 244.358347 181.258952 
L 247.637686 198.715878 
L 250.917025 181.38372 
L 254.196364 180.975589 
L 257.475702 176.620727 
L 260.755041 175.713532 
L 264.03438 168.043566 
L 267.313719 170.180808 
L 270.593058 183.803577 
L 273.872397 173.944771 
L 277.151736 165.715678 
L 280.431074 169.478697 
L 283.710413 182.466844 
L 286.989752 164.862018 
L 290.269091 171.717546 
L 293.54843 166.569931 
L 296.827769 163.952967 
L 300.107107 172.287947 
L 303.386446 168.251996 
L 306.665785 171.359957 
L 309.945124 159.175893 
L 313.224463 159.848811 
L 316.503802 162.621481 
L 319.78314 161.379373 
L 323.062479 164.6951 
L 326.341818 176.366578 
L 329.621157 162.419433 
L 332.900496 159.041471 
L 336.179835 158.185554 
L 339.459174 161.188733 
L 342.738512 160.883608 
L 346.017851 158.239315 
L 349.29719 161.176096 
L 352.576529 149.513961 
L 355.855868 154.186299 
L 359.135207 157.629096 
L 362.414545 164.149105 
L 365.693884 155.620518 
L 368.973223 152.903898 
L 372.252562 157.066286 
L 375.531901 155.315625 
L 378.81124 156.11988 
L 382.090579 184.151195 
L 385.369917 152.779967 
L 388.649256 163.072169 
L 391.928595 170.066703 
L 395.207934 158.884288 
L 398.487273 158.605801 
L 398.487273 149.114635 
L 398.487273 149.114635 
L 395.207934 153.02608 
L 391.928595 157.915032 
L 388.649256 154.705369 
L 385.369917 146.902799 
L 382.090579 153.132506 
L 378.81124 150.731477 
L 375.531901 153.626775 
L 372.252562 152.749018 
L 368.973223 147.210298 
L 365.693884 152.123103 
L 362.414545 148.468694 
L 359.135207 142.922082 
L 355.855868 150.719931 
L 352.576529 146.485871 
L 349.29719 145.284656 
L 346.017851 147.643431 
L 342.738512 148.146851 
L 339.459174 159.830767 
L 336.179835 150.044196 
L 332.900496 148.377224 
L 329.621157 149.032352 
L 326.341818 147.709062 
L 323.062479 146.518565 
L 319.78314 150.754466 
L 316.503802 150.540416 
L 313.224463 148.966005 
L 309.945124 157.124936 
L 306.665785 161.618077 
L 303.386446 151.024276 
L 300.107107 160.417177 
L 296.827769 156.2058 
L 293.54843 152.778203 
L 290.269091 153.88731 
L 286.989752 163.942444 
L 283.710413 171.065688 
L 280.431074 150.233295 
L 277.151736 152.69148 
L 273.872397 171.768975 
L 270.593058 182.911437 
L 267.313719 161.295228 
L 264.03438 157.313675 
L 260.755041 164.518239 
L 257.475702 169.115109 
L 254.196364 164.331378 
L 250.917025 172.11958 
L 247.637686 173.01224 
L 244.358347 170.094479 
L 241.079008 173.018449 
L 237.799669 157.392648 
L 234.520331 165.075622 
L 231.240992 169.306274 
L 227.961653 175.146126 
L 224.682314 184.747868 
L 221.402975 178.32416 
L 218.123636 184.85664 
L 214.844298 176.246591 
L 211.564959 189.957304 
L 208.28562 184.227021 
L 205.006281 180.524818 
L 201.726942 184.629914 
L 198.447603 181.995913 
L 195.168264 186.751378 
L 191.888926 197.161568 
L 188.609587 190.571656 
L 185.330248 195.780401 
L 182.050909 194.261994 
L 178.77157 197.090883 
L 175.492231 195.970128 
L 172.212893 196.228215 
L 168.933554 198.945474 
L 165.654215 201.493426 
L 162.374876 207.863695 
L 159.095537 214.332049 
L 155.816198 209.310109 
L 152.53686 197.060253 
L 149.257521 202.225621 
L 145.978182 211.527197 
L 142.698843 205.363206 
L 139.419504 199.763874 
L 136.140165 218.540157 
L 132.860826 212.399372 
L 129.581488 208.21274 
L 126.302149 205.333902 
L 123.02281 217.448976 
L 119.743471 224.3696 
L 116.464132 215.283286 
L 113.184793 210.171474 
L 109.905455 205.070478 
L 106.626116 209.531513 
L 103.346777 211.006231 
L 100.067438 202.473718 
L 96.788099 207.747991 
L 93.50876 207.778129 
L 90.229421 212.080968 
L 86.950083 214.811256 
L 83.670744 215.079593 
L 80.391405 236.623756 
L 77.112066 223.118642 
L 73.832727 210.892721 
z
" style="fill:#2ca02c;fill-opacity:0.2;"/>
   </g>
   <g id="PolyCollection_4">
    <path clip-path="url(#p6bbcf5bb6b)" d="M 73.832727 223.944243 
L 73.832727 226.525546 
L 77.112066 232.970006 
L 80.391405 228.609069 
L 83.670744 240.560255 
L 86.950083 230.875782 
L 90.229421 223.24941 
L 93.50876 240.03248 
L 96.788099 217.699944 
L 100.067438 256.152728 
L 103.346777 227.012833 
L 106.626116 209.09338 
L 109.905455 221.663027 
L 113.184793 219.717587 
L 116.464132 216.080432 
L 119.743471 229.806174 
L 123.02281 225.151211 
L 126.302149 216.488035 
L 129.581488 216.63915 
L 132.860826 213.64715 
L 136.140165 223.014613 
L 139.419504 213.665244 
L 142.698843 222.675761 
L 145.978182 213.295103 
L 149.257521 221.505993 
L 152.53686 215.477962 
L 155.816198 215.355877 
L 159.095537 202.861682 
L 162.374876 213.985914 
L 165.654215 214.619811 
L 168.933554 205.198264 
L 172.212893 204.60506 
L 175.492231 206.599175 
L 178.77157 197.39401 
L 182.050909 193.692288 
L 185.330248 216.443454 
L 188.609587 193.426985 
L 191.888926 194.966406 
L 195.168264 208.17599 
L 198.447603 193.199599 
L 201.726942 189.503809 
L 205.006281 191.72443 
L 208.28562 184.442051 
L 211.564959 181.63297 
L 214.844298 188.519586 
L 218.123636 176.260346 
L 221.402975 180.037936 
L 224.682314 182.493978 
L 227.961653 164.847687 
L 231.240992 149.776244 
L 234.520331 145.739818 
L 237.799669 165.546621 
L 241.079008 184.961576 
L 244.358347 175.822557 
L 247.637686 175.201829 
L 250.917025 174.84166 
L 254.196364 154.71319 
L 257.475702 157.943954 
L 260.755041 181.201114 
L 264.03438 159.160714 
L 267.313719 141.545904 
L 270.593058 121.538953 
L 273.872397 135.190584 
L 277.151736 152.975554 
L 280.431074 142.832707 
L 283.710413 142.298734 
L 286.989752 153.506926 
L 290.269091 143.673904 
L 293.54843 114.209476 
L 296.827769 105.265691 
L 300.107107 147.951235 
L 303.386446 123.916303 
L 306.665785 128.782596 
L 309.945124 151.144078 
L 313.224463 140.670079 
L 316.503802 107.845341 
L 319.78314 146.401576 
L 323.062479 133.384234 
L 326.341818 113.096114 
L 329.621157 90.456688 
L 332.900496 123.63206 
L 336.179835 136.562407 
L 339.459174 120.247943 
L 342.738512 93.447657 
L 346.017851 108.496727 
L 349.29719 119.311616 
L 352.576529 136.195115 
L 355.855868 124.895856 
L 359.135207 109.785212 
L 362.414545 104.634734 
L 365.693884 122.104549 
L 368.973223 114.283777 
L 372.252562 135.847604 
L 375.531901 92.547994 
L 378.81124 90.283191 
L 382.090579 97.589078 
L 385.369917 117.117262 
L 388.649256 126.608564 
L 391.928595 95.556615 
L 395.207934 74.606371 
L 398.487273 94.735039 
L 398.487273 58.982267 
L 398.487273 58.982267 
L 395.207934 61.178769 
L 391.928595 87.396508 
L 388.649256 75.292541 
L 385.369917 94.655236 
L 382.090579 78.897732 
L 378.81124 53.568 
L 375.531901 71.114586 
L 372.252562 87.140081 
L 368.973223 74.199026 
L 365.693884 78.818461 
L 362.414545 85.327161 
L 359.135207 100.547963 
L 355.855868 84.102437 
L 352.576529 109.740336 
L 349.29719 90.175951 
L 346.017851 96.974412 
L 342.738512 76.737615 
L 339.459174 66.105864 
L 336.179835 80.507989 
L 332.900496 80.04795 
L 329.621157 69.771562 
L 326.341818 94.29639 
L 323.062479 100.544775 
L 319.78314 142.345204 
L 316.503802 100.231736 
L 313.224463 127.34095 
L 309.945124 119.583382 
L 306.665785 113.880131 
L 303.386446 107.436184 
L 300.107107 118.188111 
L 296.827769 80.993993 
L 293.54843 85.409414 
L 290.269091 94.946147 
L 286.989752 118.796908 
L 283.710413 121.401975 
L 280.431074 121.349818 
L 277.151736 117.903254 
L 273.872397 116.30357 
L 270.593058 105.688388 
L 267.313719 127.456588 
L 264.03438 132.67071 
L 260.755041 138.536338 
L 257.475702 147.067902 
L 254.196364 148.949475 
L 250.917025 168.497328 
L 247.637686 158.805532 
L 244.358347 160.716736 
L 241.079008 174.561932 
L 237.799669 152.148715 
L 234.520331 127.49188 
L 231.240992 130.650662 
L 227.961653 151.452898 
L 224.682314 177.584023 
L 221.402975 162.620469 
L 218.123636 165.774588 
L 214.844298 173.427357 
L 211.564959 170.516207 
L 208.28562 175.873504 
L 205.006281 187.704338 
L 201.726942 173.415633 
L 198.447603 175.566023 
L 195.168264 190.346996 
L 191.888926 181.805254 
L 188.609587 189.721676 
L 185.330248 202.87682 
L 182.050909 193.044869 
L 178.77157 194.244794 
L 175.492231 198.609222 
L 172.212893 197.530276 
L 168.933554 198.550311 
L 165.654215 197.753325 
L 162.374876 210.275277 
L 159.095537 199.673824 
L 155.816198 204.092046 
L 152.53686 200.360012 
L 149.257521 203.981199 
L 145.978182 212.0158 
L 142.698843 208.876193 
L 139.419504 197.292134 
L 136.140165 217.98042 
L 132.860826 195.984812 
L 129.581488 205.845239 
L 126.302149 191.093506 
L 123.02281 216.351399 
L 119.743471 202.024623 
L 116.464132 204.369783 
L 113.184793 198.531331 
L 109.905455 206.613756 
L 106.626116 205.559554 
L 103.346777 208.676173 
L 100.067438 207.489732 
L 96.788099 203.667281 
L 93.50876 214.26108 
L 90.229421 204.129029 
L 86.950083 216.186747 
L 83.670744 219.88746 
L 80.391405 203.910734 
L 77.112066 223.748404 
L 73.832727 223.944243 
z
" style="fill:#d62728;fill-opacity:0.2;"/>
   </g>
   <g id="matplotlib.axis_1">
    <g id="xtick_1">
     <g id="line2d_1">
      <defs>
       <path d="M 0 0 
L 0 3.5 
" id="mfc3b6e78a3" style="stroke:#000000;stroke-width:0.8;"/>
      </defs>
      <g>
       <use style="stroke:#000000;stroke-width:0.8;" x="73.832727" xlink:href="#mfc3b6e78a3" y="307.584"/>
      </g>
     </g>
     <g id="text_1">
      <!-- 0 -->
      <g transform="translate(70.651477 322.182437)scale(0.1 -0.1)">
       <defs>
        <path d="M 2034 4250 
Q 1547 4250 1301 3770 
Q 1056 3291 1056 2328 
Q 1056 1369 1301 889 
Q 1547 409 2034 409 
Q 2525 409 2770 889 
Q 3016 1369 3016 2328 
Q 3016 3291 2770 3770 
Q 2525 4250 2034 4250 
z
M 2034 4750 
Q 2819 4750 3233 4129 
Q 3647 3509 3647 2328 
Q 3647 1150 3233 529 
Q 2819 -91 2034 -91 
Q 1250 -91 836 529 
Q 422 1150 422 2328 
Q 422 3509 836 4129 
Q 1250 4750 2034 4750 
z
" id="DejaVuSans-30" transform="scale(0.015625)"/>
       </defs>
       <use xlink:href="#DejaVuSans-30"/>
      </g>
     </g>
    </g>
    <g id="xtick_2">
     <g id="line2d_2">
      <g>
       <use style="stroke:#000000;stroke-width:0.8;" x="139.419504" xlink:href="#mfc3b6e78a3" y="307.584"/>
      </g>
     </g>
     <g id="text_2">
      <!-- 20 -->
      <g transform="translate(133.057004 322.182437)scale(0.1 -0.1)">
       <defs>
        <path d="M 1228 531 
L 3431 531 
L 3431 0 
L 469 0 
L 469 531 
Q 828 903 1448 1529 
Q 2069 2156 2228 2338 
Q 2531 2678 2651 2914 
Q 2772 3150 2772 3378 
Q 2772 3750 2511 3984 
Q 2250 4219 1831 4219 
Q 1534 4219 1204 4116 
Q 875 4013 500 3803 
L 500 4441 
Q 881 4594 1212 4672 
Q 1544 4750 1819 4750 
Q 2544 4750 2975 4387 
Q 3406 4025 3406 3419 
Q 3406 3131 3298 2873 
Q 3191 2616 2906 2266 
Q 2828 2175 2409 1742 
Q 1991 1309 1228 531 
z
" id="DejaVuSans-32" transform="scale(0.015625)"/>
       </defs>
       <use xlink:href="#DejaVuSans-32"/>
       <use x="63.623047" xlink:href="#DejaVuSans-30"/>
      </g>
     </g>
    </g>
    <g id="xtick_3">
     <g id="line2d_3">
      <g>
       <use style="stroke:#000000;stroke-width:0.8;" x="205.006281" xlink:href="#mfc3b6e78a3" y="307.584"/>
      </g>
     </g>
     <g id="text_3">
      <!-- 40 -->
      <g transform="translate(198.643781 322.182437)scale(0.1 -0.1)">
       <defs>
        <path d="M 2419 4116 
L 825 1625 
L 2419 1625 
L 2419 4116 
z
M 2253 4666 
L 3047 4666 
L 3047 1625 
L 3713 1625 
L 3713 1100 
L 3047 1100 
L 3047 0 
L 2419 0 
L 2419 1100 
L 313 1100 
L 313 1709 
L 2253 4666 
z
" id="DejaVuSans-34" transform="scale(0.015625)"/>
       </defs>
       <use xlink:href="#DejaVuSans-34"/>
       <use x="63.623047" xlink:href="#DejaVuSans-30"/>
      </g>
     </g>
    </g>
    <g id="xtick_4">
     <g id="line2d_4">
      <g>
       <use style="stroke:#000000;stroke-width:0.8;" x="270.593058" xlink:href="#mfc3b6e78a3" y="307.584"/>
      </g>
     </g>
     <g id="text_4">
      <!-- 60 -->
      <g transform="translate(264.230558 322.182437)scale(0.1 -0.1)">
       <defs>
        <path d="M 2113 2584 
Q 1688 2584 1439 2293 
Q 1191 2003 1191 1497 
Q 1191 994 1439 701 
Q 1688 409 2113 409 
Q 2538 409 2786 701 
Q 3034 994 3034 1497 
Q 3034 2003 2786 2293 
Q 2538 2584 2113 2584 
z
M 3366 4563 
L 3366 3988 
Q 3128 4100 2886 4159 
Q 2644 4219 2406 4219 
Q 1781 4219 1451 3797 
Q 1122 3375 1075 2522 
Q 1259 2794 1537 2939 
Q 1816 3084 2150 3084 
Q 2853 3084 3261 2657 
Q 3669 2231 3669 1497 
Q 3669 778 3244 343 
Q 2819 -91 2113 -91 
Q 1303 -91 875 529 
Q 447 1150 447 2328 
Q 447 3434 972 4092 
Q 1497 4750 2381 4750 
Q 2619 4750 2861 4703 
Q 3103 4656 3366 4563 
z
" id="DejaVuSans-36" transform="scale(0.015625)"/>
       </defs>
       <use xlink:href="#DejaVuSans-36"/>
       <use x="63.623047" xlink:href="#DejaVuSans-30"/>
      </g>
     </g>
    </g>
    <g id="xtick_5">
     <g id="line2d_5">
      <g>
       <use style="stroke:#000000;stroke-width:0.8;" x="336.179835" xlink:href="#mfc3b6e78a3" y="307.584"/>
      </g>
     </g>
     <g id="text_5">
      <!-- 80 -->
      <g transform="translate(329.817335 322.182437)scale(0.1 -0.1)">
       <defs>
        <path d="M 2034 2216 
Q 1584 2216 1326 1975 
Q 1069 1734 1069 1313 
Q 1069 891 1326 650 
Q 1584 409 2034 409 
Q 2484 409 2743 651 
Q 3003 894 3003 1313 
Q 3003 1734 2745 1975 
Q 2488 2216 2034 2216 
z
M 1403 2484 
Q 997 2584 770 2862 
Q 544 3141 544 3541 
Q 544 4100 942 4425 
Q 1341 4750 2034 4750 
Q 2731 4750 3128 4425 
Q 3525 4100 3525 3541 
Q 3525 3141 3298 2862 
Q 3072 2584 2669 2484 
Q 3125 2378 3379 2068 
Q 3634 1759 3634 1313 
Q 3634 634 3220 271 
Q 2806 -91 2034 -91 
Q 1263 -91 848 271 
Q 434 634 434 1313 
Q 434 1759 690 2068 
Q 947 2378 1403 2484 
z
M 1172 3481 
Q 1172 3119 1398 2916 
Q 1625 2713 2034 2713 
Q 2441 2713 2670 2916 
Q 2900 3119 2900 3481 
Q 2900 3844 2670 4047 
Q 2441 4250 2034 4250 
Q 1625 4250 1398 4047 
Q 1172 3844 1172 3481 
z
" id="DejaVuSans-38" transform="scale(0.015625)"/>
       </defs>
       <use xlink:href="#DejaVuSans-38"/>
       <use x="63.623047" xlink:href="#DejaVuSans-30"/>
      </g>
     </g>
    </g>
    <g id="xtick_6">
     <g id="line2d_6">
      <g>
       <use style="stroke:#000000;stroke-width:0.8;" x="401.766612" xlink:href="#mfc3b6e78a3" y="307.584"/>
      </g>
     </g>
     <g id="text_6">
      <!-- 100 -->
      <g transform="translate(392.222862 322.182437)scale(0.1 -0.1)">
       <defs>
        <path d="M 794 531 
L 1825 531 
L 1825 4091 
L 703 3866 
L 703 4441 
L 1819 4666 
L 2450 4666 
L 2450 531 
L 3481 531 
L 3481 0 
L 794 0 
L 794 531 
z
" id="DejaVuSans-31" transform="scale(0.015625)"/>
       </defs>
       <use xlink:href="#DejaVuSans-31"/>
       <use x="63.623047" xlink:href="#DejaVuSans-30"/>
       <use x="127.246094" xlink:href="#DejaVuSans-30"/>
      </g>
     </g>
    </g>
    <g id="text_7">
     <!-- iterations -->
     <g transform="translate(212.432656 335.860562)scale(0.1 -0.1)">
      <defs>
       <path d="M 603 3500 
L 1178 3500 
L 1178 0 
L 603 0 
L 603 3500 
z
M 603 4863 
L 1178 4863 
L 1178 4134 
L 603 4134 
L 603 4863 
z
" id="DejaVuSans-69" transform="scale(0.015625)"/>
       <path d="M 1172 4494 
L 1172 3500 
L 2356 3500 
L 2356 3053 
L 1172 3053 
L 1172 1153 
Q 1172 725 1289 603 
Q 1406 481 1766 481 
L 2356 481 
L 2356 0 
L 1766 0 
Q 1100 0 847 248 
Q 594 497 594 1153 
L 594 3053 
L 172 3053 
L 172 3500 
L 594 3500 
L 594 4494 
L 1172 4494 
z
" id="DejaVuSans-74" transform="scale(0.015625)"/>
       <path d="M 3597 1894 
L 3597 1613 
L 953 1613 
Q 991 1019 1311 708 
Q 1631 397 2203 397 
Q 2534 397 2845 478 
Q 3156 559 3463 722 
L 3463 178 
Q 3153 47 2828 -22 
Q 2503 -91 2169 -91 
Q 1331 -91 842 396 
Q 353 884 353 1716 
Q 353 2575 817 3079 
Q 1281 3584 2069 3584 
Q 2775 3584 3186 3129 
Q 3597 2675 3597 1894 
z
M 3022 2063 
Q 3016 2534 2758 2815 
Q 2500 3097 2075 3097 
Q 1594 3097 1305 2825 
Q 1016 2553 972 2059 
L 3022 2063 
z
" id="DejaVuSans-65" transform="scale(0.015625)"/>
       <path d="M 2631 2963 
Q 2534 3019 2420 3045 
Q 2306 3072 2169 3072 
Q 1681 3072 1420 2755 
Q 1159 2438 1159 1844 
L 1159 0 
L 581 0 
L 581 3500 
L 1159 3500 
L 1159 2956 
Q 1341 3275 1631 3429 
Q 1922 3584 2338 3584 
Q 2397 3584 2469 3576 
Q 2541 3569 2628 3553 
L 2631 2963 
z
" id="DejaVuSans-72" transform="scale(0.015625)"/>
       <path d="M 2194 1759 
Q 1497 1759 1228 1600 
Q 959 1441 959 1056 
Q 959 750 1161 570 
Q 1363 391 1709 391 
Q 2188 391 2477 730 
Q 2766 1069 2766 1631 
L 2766 1759 
L 2194 1759 
z
M 3341 1997 
L 3341 0 
L 2766 0 
L 2766 531 
Q 2569 213 2275 61 
Q 1981 -91 1556 -91 
Q 1019 -91 701 211 
Q 384 513 384 1019 
Q 384 1609 779 1909 
Q 1175 2209 1959 2209 
L 2766 2209 
L 2766 2266 
Q 2766 2663 2505 2880 
Q 2244 3097 1772 3097 
Q 1472 3097 1187 3025 
Q 903 2953 641 2809 
L 641 3341 
Q 956 3463 1253 3523 
Q 1550 3584 1831 3584 
Q 2591 3584 2966 3190 
Q 3341 2797 3341 1997 
z
" id="DejaVuSans-61" transform="scale(0.015625)"/>
       <path d="M 1959 3097 
Q 1497 3097 1228 2736 
Q 959 2375 959 1747 
Q 959 1119 1226 758 
Q 1494 397 1959 397 
Q 2419 397 2687 759 
Q 2956 1122 2956 1747 
Q 2956 2369 2687 2733 
Q 2419 3097 1959 3097 
z
M 1959 3584 
Q 2709 3584 3137 3096 
Q 3566 2609 3566 1747 
Q 3566 888 3137 398 
Q 2709 -91 1959 -91 
Q 1206 -91 779 398 
Q 353 888 353 1747 
Q 353 2609 779 3096 
Q 1206 3584 1959 3584 
z
" id="DejaVuSans-6f" transform="scale(0.015625)"/>
       <path d="M 3513 2113 
L 3513 0 
L 2938 0 
L 2938 2094 
Q 2938 2591 2744 2837 
Q 2550 3084 2163 3084 
Q 1697 3084 1428 2787 
Q 1159 2491 1159 1978 
L 1159 0 
L 581 0 
L 581 3500 
L 1159 3500 
L 1159 2956 
Q 1366 3272 1645 3428 
Q 1925 3584 2291 3584 
Q 2894 3584 3203 3211 
Q 3513 2838 3513 2113 
z
" id="DejaVuSans-6e" transform="scale(0.015625)"/>
       <path d="M 2834 3397 
L 2834 2853 
Q 2591 2978 2328 3040 
Q 2066 3103 1784 3103 
Q 1356 3103 1142 2972 
Q 928 2841 928 2578 
Q 928 2378 1081 2264 
Q 1234 2150 1697 2047 
L 1894 2003 
Q 2506 1872 2764 1633 
Q 3022 1394 3022 966 
Q 3022 478 2636 193 
Q 2250 -91 1575 -91 
Q 1294 -91 989 -36 
Q 684 19 347 128 
L 347 722 
Q 666 556 975 473 
Q 1284 391 1588 391 
Q 1994 391 2212 530 
Q 2431 669 2431 922 
Q 2431 1156 2273 1281 
Q 2116 1406 1581 1522 
L 1381 1569 
Q 847 1681 609 1914 
Q 372 2147 372 2553 
Q 372 3047 722 3315 
Q 1072 3584 1716 3584 
Q 2034 3584 2315 3537 
Q 2597 3491 2834 3397 
z
" id="DejaVuSans-73" transform="scale(0.015625)"/>
      </defs>
      <use xlink:href="#DejaVuSans-69"/>
      <use x="27.783203" xlink:href="#DejaVuSans-74"/>
      <use x="66.992188" xlink:href="#DejaVuSans-65"/>
      <use x="128.515625" xlink:href="#DejaVuSans-72"/>
      <use x="169.628906" xlink:href="#DejaVuSans-61"/>
      <use x="230.908203" xlink:href="#DejaVuSans-74"/>
      <use x="270.117188" xlink:href="#DejaVuSans-69"/>
      <use x="297.900391" xlink:href="#DejaVuSans-6f"/>
      <use x="359.082031" xlink:href="#DejaVuSans-6e"/>
      <use x="422.460938" xlink:href="#DejaVuSans-73"/>
     </g>
    </g>
   </g>
   <g id="matplotlib.axis_2">
    <g id="ytick_1">
     <g id="line2d_7">
      <defs>
       <path d="M 0 0 
L -3.5 0 
" id="m89e2b322c5" style="stroke:#000000;stroke-width:0.8;"/>
      </defs>
      <g>
       <use style="stroke:#000000;stroke-width:0.8;" x="57.6" xlink:href="#m89e2b322c5" y="280.25702"/>
      </g>
     </g>
     <g id="text_8">
      <!-- −200 -->
      <g transform="translate(23.132812 284.056238)scale(0.1 -0.1)">
       <defs>
        <path d="M 678 2272 
L 4684 2272 
L 4684 1741 
L 678 1741 
L 678 2272 
z
" id="DejaVuSans-2212" transform="scale(0.015625)"/>
       </defs>
       <use xlink:href="#DejaVuSans-2212"/>
       <use x="83.789062" xlink:href="#DejaVuSans-32"/>
       <use x="147.412109" xlink:href="#DejaVuSans-30"/>
       <use x="211.035156" xlink:href="#DejaVuSans-30"/>
      </g>
     </g>
    </g>
    <g id="ytick_2">
     <g id="line2d_8">
      <g>
       <use style="stroke:#000000;stroke-width:0.8;" x="57.6" xlink:href="#m89e2b322c5" y="241.216136"/>
      </g>
     </g>
     <g id="text_9">
      <!-- −100 -->
      <g transform="translate(23.132812 245.015355)scale(0.1 -0.1)">
       <use xlink:href="#DejaVuSans-2212"/>
       <use x="83.789062" xlink:href="#DejaVuSans-31"/>
       <use x="147.412109" xlink:href="#DejaVuSans-30"/>
       <use x="211.035156" xlink:href="#DejaVuSans-30"/>
      </g>
     </g>
    </g>
    <g id="ytick_3">
     <g id="line2d_9">
      <g>
       <use style="stroke:#000000;stroke-width:0.8;" x="57.6" xlink:href="#m89e2b322c5" y="202.175253"/>
      </g>
     </g>
     <g id="text_10">
      <!-- 0 -->
      <g transform="translate(44.2375 205.974472)scale(0.1 -0.1)">
       <use xlink:href="#DejaVuSans-30"/>
      </g>
     </g>
    </g>
    <g id="ytick_4">
     <g id="line2d_10">
      <g>
       <use style="stroke:#000000;stroke-width:0.8;" x="57.6" xlink:href="#m89e2b322c5" y="163.13437"/>
      </g>
     </g>
     <g id="text_11">
      <!-- 100 -->
      <g transform="translate(31.5125 166.933589)scale(0.1 -0.1)">
       <use xlink:href="#DejaVuSans-31"/>
       <use x="63.623047" xlink:href="#DejaVuSans-30"/>
       <use x="127.246094" xlink:href="#DejaVuSans-30"/>
      </g>
     </g>
    </g>
    <g id="ytick_5">
     <g id="line2d_11">
      <g>
       <use style="stroke:#000000;stroke-width:0.8;" x="57.6" xlink:href="#m89e2b322c5" y="124.093487"/>
      </g>
     </g>
     <g id="text_12">
      <!-- 200 -->
      <g transform="translate(31.5125 127.892706)scale(0.1 -0.1)">
       <use xlink:href="#DejaVuSans-32"/>
       <use x="63.623047" xlink:href="#DejaVuSans-30"/>
       <use x="127.246094" xlink:href="#DejaVuSans-30"/>
      </g>
     </g>
    </g>
    <g id="ytick_6">
     <g id="line2d_12">
      <g>
       <use style="stroke:#000000;stroke-width:0.8;" x="57.6" xlink:href="#m89e2b322c5" y="85.052604"/>
      </g>
     </g>
     <g id="text_13">
      <!-- 300 -->
      <g transform="translate(31.5125 88.851823)scale(0.1 -0.1)">
       <defs>
        <path d="M 2597 2516 
Q 3050 2419 3304 2112 
Q 3559 1806 3559 1356 
Q 3559 666 3084 287 
Q 2609 -91 1734 -91 
Q 1441 -91 1130 -33 
Q 819 25 488 141 
L 488 750 
Q 750 597 1062 519 
Q 1375 441 1716 441 
Q 2309 441 2620 675 
Q 2931 909 2931 1356 
Q 2931 1769 2642 2001 
Q 2353 2234 1838 2234 
L 1294 2234 
L 1294 2753 
L 1863 2753 
Q 2328 2753 2575 2939 
Q 2822 3125 2822 3475 
Q 2822 3834 2567 4026 
Q 2313 4219 1838 4219 
Q 1578 4219 1281 4162 
Q 984 4106 628 3988 
L 628 4550 
Q 988 4650 1302 4700 
Q 1616 4750 1894 4750 
Q 2613 4750 3031 4423 
Q 3450 4097 3450 3541 
Q 3450 3153 3228 2886 
Q 3006 2619 2597 2516 
z
" id="DejaVuSans-33" transform="scale(0.015625)"/>
       </defs>
       <use xlink:href="#DejaVuSans-33"/>
       <use x="63.623047" xlink:href="#DejaVuSans-30"/>
       <use x="127.246094" xlink:href="#DejaVuSans-30"/>
      </g>
     </g>
    </g>
    <g id="ytick_7">
     <g id="line2d_13">
      <g>
       <use style="stroke:#000000;stroke-width:0.8;" x="57.6" xlink:href="#m89e2b322c5" y="46.011721"/>
      </g>
     </g>
     <g id="text_14">
      <!-- 400 -->
      <g transform="translate(31.5125 49.810939)scale(0.1 -0.1)">
       <use xlink:href="#DejaVuSans-34"/>
       <use x="63.623047" xlink:href="#DejaVuSans-30"/>
       <use x="127.246094" xlink:href="#DejaVuSans-30"/>
      </g>
     </g>
    </g>
    <g id="text_15">
     <!-- Average Return -->
     <g transform="translate(17.053125 213.241281)rotate(-90)scale(0.1 -0.1)">
      <defs>
       <path d="M 2188 4044 
L 1331 1722 
L 3047 1722 
L 2188 4044 
z
M 1831 4666 
L 2547 4666 
L 4325 0 
L 3669 0 
L 3244 1197 
L 1141 1197 
L 716 0 
L 50 0 
L 1831 4666 
z
" id="DejaVuSans-41" transform="scale(0.015625)"/>
       <path d="M 191 3500 
L 800 3500 
L 1894 563 
L 2988 3500 
L 3597 3500 
L 2284 0 
L 1503 0 
L 191 3500 
z
" id="DejaVuSans-76" transform="scale(0.015625)"/>
       <path d="M 2906 1791 
Q 2906 2416 2648 2759 
Q 2391 3103 1925 3103 
Q 1463 3103 1205 2759 
Q 947 2416 947 1791 
Q 947 1169 1205 825 
Q 1463 481 1925 481 
Q 2391 481 2648 825 
Q 2906 1169 2906 1791 
z
M 3481 434 
Q 3481 -459 3084 -895 
Q 2688 -1331 1869 -1331 
Q 1566 -1331 1297 -1286 
Q 1028 -1241 775 -1147 
L 775 -588 
Q 1028 -725 1275 -790 
Q 1522 -856 1778 -856 
Q 2344 -856 2625 -561 
Q 2906 -266 2906 331 
L 2906 616 
Q 2728 306 2450 153 
Q 2172 0 1784 0 
Q 1141 0 747 490 
Q 353 981 353 1791 
Q 353 2603 747 3093 
Q 1141 3584 1784 3584 
Q 2172 3584 2450 3431 
Q 2728 3278 2906 2969 
L 2906 3500 
L 3481 3500 
L 3481 434 
z
" id="DejaVuSans-67" transform="scale(0.015625)"/>
       <path id="DejaVuSans-20" transform="scale(0.015625)"/>
       <path d="M 2841 2188 
Q 3044 2119 3236 1894 
Q 3428 1669 3622 1275 
L 4263 0 
L 3584 0 
L 2988 1197 
Q 2756 1666 2539 1819 
Q 2322 1972 1947 1972 
L 1259 1972 
L 1259 0 
L 628 0 
L 628 4666 
L 2053 4666 
Q 2853 4666 3247 4331 
Q 3641 3997 3641 3322 
Q 3641 2881 3436 2590 
Q 3231 2300 2841 2188 
z
M 1259 4147 
L 1259 2491 
L 2053 2491 
Q 2509 2491 2742 2702 
Q 2975 2913 2975 3322 
Q 2975 3731 2742 3939 
Q 2509 4147 2053 4147 
L 1259 4147 
z
" id="DejaVuSans-52" transform="scale(0.015625)"/>
       <path d="M 544 1381 
L 544 3500 
L 1119 3500 
L 1119 1403 
Q 1119 906 1312 657 
Q 1506 409 1894 409 
Q 2359 409 2629 706 
Q 2900 1003 2900 1516 
L 2900 3500 
L 3475 3500 
L 3475 0 
L 2900 0 
L 2900 538 
Q 2691 219 2414 64 
Q 2138 -91 1772 -91 
Q 1169 -91 856 284 
Q 544 659 544 1381 
z
M 1991 3584 
L 1991 3584 
z
" id="DejaVuSans-75" transform="scale(0.015625)"/>
      </defs>
      <use xlink:href="#DejaVuSans-41"/>
      <use x="62.533203" xlink:href="#DejaVuSans-76"/>
      <use x="121.712891" xlink:href="#DejaVuSans-65"/>
      <use x="183.236328" xlink:href="#DejaVuSans-72"/>
      <use x="224.349609" xlink:href="#DejaVuSans-61"/>
      <use x="285.628906" xlink:href="#DejaVuSans-67"/>
      <use x="349.105469" xlink:href="#DejaVuSans-65"/>
      <use x="410.628906" xlink:href="#DejaVuSans-20"/>
      <use x="442.416016" xlink:href="#DejaVuSans-52"/>
      <use x="507.398438" xlink:href="#DejaVuSans-65"/>
      <use x="568.921875" xlink:href="#DejaVuSans-74"/>
      <use x="608.130859" xlink:href="#DejaVuSans-75"/>
      <use x="671.509766" xlink:href="#DejaVuSans-72"/>
      <use x="710.873047" xlink:href="#DejaVuSans-6e"/>
     </g>
    </g>
   </g>
   <g id="line2d_14">
    <path clip-path="url(#p6bbcf5bb6b)" d="M 73.832727 238.897917 
L 77.112066 228.704744 
L 80.391405 241.627112 
L 83.670744 251.89967 
L 86.950083 251.904951 
L 90.229421 248.584755 
L 93.50876 237.275447 
L 96.788099 245.563191 
L 100.067438 242.843229 
L 103.346777 241.641347 
L 106.626116 240.597458 
L 109.905455 252.483115 
L 113.184793 252.1625 
L 116.464132 243.275195 
L 119.743471 251.714617 
L 123.02281 224.053482 
L 126.302149 240.944219 
L 129.581488 221.219799 
L 132.860826 229.193113 
L 136.140165 233.440236 
L 139.419504 214.943061 
L 142.698843 213.704767 
L 145.978182 231.490047 
L 149.257521 233.312627 
L 152.53686 240.199329 
L 155.816198 243.569717 
L 159.095537 219.486015 
L 162.374876 234.855223 
L 165.654215 226.47995 
L 168.933554 257.727393 
L 172.212893 237.923632 
L 175.492231 235.369878 
L 178.77157 221.415793 
L 182.050909 235.573488 
L 185.330248 221.889672 
L 188.609587 245.048474 
L 191.888926 250.215761 
L 195.168264 248.608428 
L 198.447603 238.269567 
L 201.726942 213.758764 
L 205.006281 231.308395 
L 208.28562 225.909078 
L 211.564959 200.759722 
L 214.844298 231.311314 
L 218.123636 217.817668 
L 221.402975 223.612566 
L 224.682314 217.300191 
L 227.961653 216.855995 
L 231.240992 199.163188 
L 234.520331 211.441164 
L 237.799669 210.69789 
L 241.079008 214.90382 
L 244.358347 207.779641 
L 247.637686 212.805036 
L 250.917025 215.140668 
L 254.196364 212.562131 
L 257.475702 205.965327 
L 260.755041 206.977582 
L 264.03438 225.354763 
L 267.313719 220.43639 
L 270.593058 219.660423 
L 273.872397 225.01116 
L 277.151736 227.098462 
L 280.431074 203.06646 
L 283.710413 211.372795 
L 286.989752 214.174016 
L 290.269091 210.024496 
L 293.54843 201.934255 
L 296.827769 288.528854 
L 300.107107 227.741947 
L 303.386446 200.854621 
L 306.665785 208.494395 
L 309.945124 215.604268 
L 313.224463 211.602925 
L 316.503802 216.529002 
L 319.78314 207.166912 
L 323.062479 219.618707 
L 326.341818 214.006461 
L 329.621157 227.568075 
L 332.900496 226.013461 
L 336.179835 217.965252 
L 339.459174 216.749177 
L 342.738512 213.757641 
L 346.017851 207.249299 
L 349.29719 216.359985 
L 352.576529 227.956617 
L 355.855868 239.72358 
L 359.135207 231.180558 
L 362.414545 227.412844 
L 365.693884 229.29252 
L 368.973223 221.871739 
L 372.252562 213.613702 
L 375.531901 223.73826 
L 378.81124 224.264027 
L 382.090579 224.682189 
L 385.369917 207.872352 
L 388.649256 199.410237 
L 391.928595 186.347529 
L 395.207934 192.826308 
L 398.487273 191.228053 
" style="fill:none;stroke:#1f77b4;stroke-linecap:square;stroke-width:1.5;"/>
   </g>
   <g id="line2d_15">
    <path clip-path="url(#p6bbcf5bb6b)" d="M 73.832727 243.07655 
L 77.112066 241.588337 
L 80.391405 248.181264 
L 83.670744 234.437263 
L 86.950083 240.142527 
L 90.229421 257.53055 
L 93.50876 241.021316 
L 96.788099 246.383963 
L 100.067438 254.364972 
L 103.346777 256.052131 
L 106.626116 233.686877 
L 109.905455 249.739069 
L 113.184793 238.796479 
L 116.464132 253.692616 
L 119.743471 231.247614 
L 123.02281 244.676869 
L 126.302149 249.962841 
L 129.581488 236.362246 
L 132.860826 236.996524 
L 136.140165 252.731344 
L 139.419504 243.508564 
L 142.698843 237.855103 
L 145.978182 247.95798 
L 149.257521 247.47002 
L 152.53686 238.612506 
L 155.816198 242.837939 
L 159.095537 239.497354 
L 162.374876 241.385323 
L 165.654215 228.616709 
L 168.933554 235.884416 
L 172.212893 236.656292 
L 175.492231 240.639197 
L 178.77157 228.341024 
L 182.050909 228.843433 
L 185.330248 249.120155 
L 188.609587 246.752354 
L 191.888926 233.300632 
L 195.168264 243.171478 
L 198.447603 234.097534 
L 201.726942 245.460549 
L 205.006281 231.629487 
L 208.28562 222.413332 
L 211.564959 230.459678 
L 214.844298 225.768745 
L 218.123636 214.710796 
L 221.402975 219.355117 
L 224.682314 214.994756 
L 227.961653 232.827648 
L 231.240992 222.639186 
L 234.520331 228.345441 
L 237.799669 235.537411 
L 241.079008 223.030039 
L 244.358347 221.012563 
L 247.637686 224.769301 
L 250.917025 222.236077 
L 254.196364 229.804789 
L 257.475702 219.122573 
L 260.755041 207.765775 
L 264.03438 225.357851 
L 267.313719 210.63867 
L 270.593058 223.706119 
L 273.872397 205.49618 
L 277.151736 205.237727 
L 280.431074 200.936843 
L 283.710413 208.713845 
L 286.989752 233.351965 
L 290.269091 213.874056 
L 293.54843 216.481608 
L 296.827769 221.385779 
L 300.107107 222.41875 
L 303.386446 225.3155 
L 306.665785 214.90134 
L 309.945124 212.621805 
L 313.224463 215.514195 
L 316.503802 201.581191 
L 319.78314 212.21161 
L 323.062479 203.744882 
L 326.341818 208.625658 
L 329.621157 216.005163 
L 332.900496 228.285533 
L 336.179835 222.582659 
L 339.459174 215.975554 
L 342.738512 236.694186 
L 346.017851 217.162059 
L 349.29719 205.476228 
L 352.576529 219.746669 
L 355.855868 237.733062 
L 359.135207 218.331638 
L 362.414545 221.312429 
L 365.693884 228.072177 
L 368.973223 197.816192 
L 372.252562 211.5725 
L 375.531901 202.846393 
L 378.81124 220.012831 
L 382.090579 229.903088 
L 385.369917 215.772087 
L 388.649256 209.636409 
L 391.928595 225.032502 
L 395.207934 217.345622 
L 398.487273 215.195752 
" style="fill:none;stroke:#ff7f0e;stroke-linecap:square;stroke-width:1.5;"/>
   </g>
   <g id="line2d_16">
    <path clip-path="url(#p6bbcf5bb6b)" d="M 73.832727 220.073241 
L 77.112066 229.039236 
L 80.391405 245.331776 
L 83.670744 230.731051 
L 86.950083 221.106363 
L 90.229421 217.65658 
L 93.50876 219.277138 
L 96.788099 216.47076 
L 100.067438 211.609204 
L 103.346777 219.55759 
L 106.626116 218.693852 
L 109.905455 210.055764 
L 113.184793 217.439528 
L 116.464132 217.630532 
L 119.743471 233.322748 
L 123.02281 228.803032 
L 126.302149 212.902179 
L 129.581488 215.185963 
L 132.860826 217.209073 
L 136.140165 225.892296 
L 139.419504 203.50855 
L 142.698843 210.293458 
L 145.978182 215.636967 
L 149.257521 209.409207 
L 152.53686 207.878566 
L 155.816198 210.666375 
L 159.095537 219.932676 
L 162.374876 210.160986 
L 165.654215 203.431535 
L 168.933554 203.48303 
L 172.212893 199.505218 
L 175.492231 202.214659 
L 178.77157 202.737371 
L 182.050909 197.406364 
L 185.330248 197.066128 
L 188.609587 195.383868 
L 191.888926 205.598265 
L 195.168264 194.589466 
L 198.447603 188.215387 
L 201.726942 188.358706 
L 205.006281 183.594836 
L 208.28562 186.957475 
L 211.564959 192.116612 
L 214.844298 187.683528 
L 218.123636 187.351836 
L 221.402975 186.340211 
L 224.682314 191.971581 
L 227.961653 185.068103 
L 231.240992 176.830756 
L 234.520331 171.806348 
L 237.799669 164.519962 
L 241.079008 177.150584 
L 244.358347 175.676715 
L 247.637686 185.864059 
L 250.917025 176.75165 
L 254.196364 172.653484 
L 257.475702 172.867918 
L 260.755041 170.115886 
L 264.03438 162.67862 
L 267.313719 165.738018 
L 270.593058 183.357507 
L 273.872397 172.856873 
L 277.151736 159.203579 
L 280.431074 159.855996 
L 283.710413 176.766266 
L 286.989752 164.402231 
L 290.269091 162.802428 
L 293.54843 159.674067 
L 296.827769 160.079383 
L 300.107107 166.352562 
L 303.386446 159.638136 
L 306.665785 166.489017 
L 309.945124 158.150414 
L 313.224463 154.407408 
L 316.503802 156.580948 
L 319.78314 156.066919 
L 323.062479 155.606833 
L 326.341818 162.03782 
L 329.621157 155.725892 
L 332.900496 153.709347 
L 336.179835 154.114875 
L 339.459174 160.50975 
L 342.738512 154.51523 
L 346.017851 152.941373 
L 349.29719 153.230376 
L 352.576529 147.999916 
L 355.855868 152.453115 
L 359.135207 150.275589 
L 362.414545 156.308899 
L 365.693884 153.871811 
L 368.973223 150.057098 
L 372.252562 154.907652 
L 375.531901 154.4712 
L 378.81124 153.425679 
L 382.090579 168.64185 
L 385.369917 149.841383 
L 388.649256 158.888769 
L 391.928595 163.990868 
L 395.207934 155.955184 
L 398.487273 153.860218 
" style="fill:none;stroke:#2ca02c;stroke-linecap:square;stroke-width:1.5;"/>
   </g>
   <g id="line2d_17">
    <path clip-path="url(#p6bbcf5bb6b)" d="M 73.832727 225.234895 
L 77.112066 228.359205 
L 80.391405 216.259901 
L 83.670744 230.223858 
L 86.950083 223.531264 
L 90.229421 213.68922 
L 93.50876 227.14678 
L 96.788099 210.683612 
L 100.067438 231.82123 
L 103.346777 217.844503 
L 106.626116 207.326467 
L 109.905455 214.138392 
L 113.184793 209.124459 
L 116.464132 210.225108 
L 119.743471 215.915399 
L 123.02281 220.751305 
L 126.302149 203.790771 
L 129.581488 211.242195 
L 132.860826 204.815981 
L 136.140165 220.497517 
L 139.419504 205.478689 
L 142.698843 215.775977 
L 145.978182 212.655451 
L 149.257521 212.743596 
L 152.53686 207.918987 
L 155.816198 209.723962 
L 159.095537 201.267753 
L 162.374876 212.130596 
L 165.654215 206.186568 
L 168.933554 201.874287 
L 172.212893 201.067668 
L 175.492231 202.604198 
L 178.77157 195.819402 
L 182.050909 193.368578 
L 185.330248 209.660137 
L 188.609587 191.57433 
L 191.888926 188.38583 
L 195.168264 199.261493 
L 198.447603 184.382811 
L 201.726942 181.459721 
L 205.006281 189.714384 
L 208.28562 180.157778 
L 211.564959 176.074589 
L 214.844298 180.973472 
L 218.123636 171.017467 
L 221.402975 171.329203 
L 224.682314 180.039001 
L 227.961653 158.150292 
L 231.240992 140.213453 
L 234.520331 136.615849 
L 237.799669 158.847668 
L 241.079008 179.761754 
L 244.358347 168.269647 
L 247.637686 167.00368 
L 250.917025 171.669494 
L 254.196364 151.831333 
L 257.475702 152.505928 
L 260.755041 159.868726 
L 264.03438 145.915712 
L 267.313719 134.501246 
L 270.593058 113.61367 
L 273.872397 125.747077 
L 277.151736 135.439404 
L 280.431074 132.091262 
L 283.710413 131.850355 
L 286.989752 136.151917 
L 290.269091 119.310026 
L 293.54843 99.809445 
L 296.827769 93.129842 
L 300.107107 133.069673 
L 303.386446 115.676244 
L 306.665785 121.331364 
L 309.945124 135.36373 
L 313.224463 134.005514 
L 316.503802 104.038539 
L 319.78314 144.37339 
L 323.062479 116.964505 
L 326.341818 103.696252 
L 329.621157 80.114125 
L 332.900496 101.840005 
L 336.179835 108.535198 
L 339.459174 93.176903 
L 342.738512 85.092636 
L 346.017851 102.735569 
L 349.29719 104.743784 
L 352.576529 122.967726 
L 355.855868 104.499147 
L 359.135207 105.166588 
L 362.414545 94.980948 
L 365.693884 100.461505 
L 368.973223 94.241401 
L 372.252562 111.493843 
L 375.531901 81.83129 
L 378.81124 71.925595 
L 382.090579 88.243405 
L 385.369917 105.886249 
L 388.649256 100.950552 
L 391.928595 91.476561 
L 395.207934 67.89257 
L 398.487273 76.858653 
" style="fill:none;stroke:#d62728;stroke-linecap:square;stroke-width:1.5;"/>
   </g>
   <g id="patch_3">
    <path d="M 57.6 307.584 
L 57.6 41.472 
" style="fill:none;stroke:#000000;stroke-linecap:square;stroke-linejoin:miter;stroke-width:0.8;"/>
   </g>
   <g id="patch_4">
    <path d="M 414.72 307.584 
L 414.72 41.472 
" style="fill:none;stroke:#000000;stroke-linecap:square;stroke-linejoin:miter;stroke-width:0.8;"/>
   </g>
   <g id="patch_5">
    <path d="M 57.6 307.584 
L 414.72 307.584 
" style="fill:none;stroke:#000000;stroke-linecap:square;stroke-linejoin:miter;stroke-width:0.8;"/>
   </g>
   <g id="patch_6">
    <path d="M 57.6 41.472 
L 414.72 41.472 
" style="fill:none;stroke:#000000;stroke-linecap:square;stroke-linejoin:miter;stroke-width:0.8;"/>
   </g>
   <g id="text_16">
    <!-- Experiment 4 - Comparison -->
    <g transform="translate(153.865313 35.472)scale(0.12 -0.12)">
     <defs>
      <path d="M 628 4666 
L 3578 4666 
L 3578 4134 
L 1259 4134 
L 1259 2753 
L 3481 2753 
L 3481 2222 
L 1259 2222 
L 1259 531 
L 3634 531 
L 3634 0 
L 628 0 
L 628 4666 
z
" id="DejaVuSans-45" transform="scale(0.015625)"/>
      <path d="M 3513 3500 
L 2247 1797 
L 3578 0 
L 2900 0 
L 1881 1375 
L 863 0 
L 184 0 
L 1544 1831 
L 300 3500 
L 978 3500 
L 1906 2253 
L 2834 3500 
L 3513 3500 
z
" id="DejaVuSans-78" transform="scale(0.015625)"/>
      <path d="M 1159 525 
L 1159 -1331 
L 581 -1331 
L 581 3500 
L 1159 3500 
L 1159 2969 
Q 1341 3281 1617 3432 
Q 1894 3584 2278 3584 
Q 2916 3584 3314 3078 
Q 3713 2572 3713 1747 
Q 3713 922 3314 415 
Q 2916 -91 2278 -91 
Q 1894 -91 1617 61 
Q 1341 213 1159 525 
z
M 3116 1747 
Q 3116 2381 2855 2742 
Q 2594 3103 2138 3103 
Q 1681 3103 1420 2742 
Q 1159 2381 1159 1747 
Q 1159 1113 1420 752 
Q 1681 391 2138 391 
Q 2594 391 2855 752 
Q 3116 1113 3116 1747 
z
" id="DejaVuSans-70" transform="scale(0.015625)"/>
      <path d="M 3328 2828 
Q 3544 3216 3844 3400 
Q 4144 3584 4550 3584 
Q 5097 3584 5394 3201 
Q 5691 2819 5691 2113 
L 5691 0 
L 5113 0 
L 5113 2094 
Q 5113 2597 4934 2840 
Q 4756 3084 4391 3084 
Q 3944 3084 3684 2787 
Q 3425 2491 3425 1978 
L 3425 0 
L 2847 0 
L 2847 2094 
Q 2847 2600 2669 2842 
Q 2491 3084 2119 3084 
Q 1678 3084 1418 2786 
Q 1159 2488 1159 1978 
L 1159 0 
L 581 0 
L 581 3500 
L 1159 3500 
L 1159 2956 
Q 1356 3278 1631 3431 
Q 1906 3584 2284 3584 
Q 2666 3584 2933 3390 
Q 3200 3197 3328 2828 
z
" id="DejaVuSans-6d" transform="scale(0.015625)"/>
      <path d="M 313 2009 
L 1997 2009 
L 1997 1497 
L 313 1497 
L 313 2009 
z
" id="DejaVuSans-2d" transform="scale(0.015625)"/>
      <path d="M 4122 4306 
L 4122 3641 
Q 3803 3938 3442 4084 
Q 3081 4231 2675 4231 
Q 1875 4231 1450 3742 
Q 1025 3253 1025 2328 
Q 1025 1406 1450 917 
Q 1875 428 2675 428 
Q 3081 428 3442 575 
Q 3803 722 4122 1019 
L 4122 359 
Q 3791 134 3420 21 
Q 3050 -91 2638 -91 
Q 1578 -91 968 557 
Q 359 1206 359 2328 
Q 359 3453 968 4101 
Q 1578 4750 2638 4750 
Q 3056 4750 3426 4639 
Q 3797 4528 4122 4306 
z
" id="DejaVuSans-43" transform="scale(0.015625)"/>
     </defs>
     <use xlink:href="#DejaVuSans-45"/>
     <use x="63.183594" xlink:href="#DejaVuSans-78"/>
     <use x="122.363281" xlink:href="#DejaVuSans-70"/>
     <use x="185.839844" xlink:href="#DejaVuSans-65"/>
     <use x="247.363281" xlink:href="#DejaVuSans-72"/>
     <use x="288.476562" xlink:href="#DejaVuSans-69"/>
     <use x="316.259766" xlink:href="#DejaVuSans-6d"/>
     <use x="413.671875" xlink:href="#DejaVuSans-65"/>
     <use x="475.195312" xlink:href="#DejaVuSans-6e"/>
     <use x="538.574219" xlink:href="#DejaVuSans-74"/>
     <use x="577.783203" xlink:href="#DejaVuSans-20"/>
     <use x="609.570312" xlink:href="#DejaVuSans-34"/>
     <use x="673.193359" xlink:href="#DejaVuSans-20"/>
     <use x="704.980469" xlink:href="#DejaVuSans-2d"/>
     <use x="741.064453" xlink:href="#DejaVuSans-20"/>
     <use x="772.851562" xlink:href="#DejaVuSans-43"/>
     <use x="842.675781" xlink:href="#DejaVuSans-6f"/>
     <use x="903.857422" xlink:href="#DejaVuSans-6d"/>
     <use x="1001.269531" xlink:href="#DejaVuSans-70"/>
     <use x="1064.746094" xlink:href="#DejaVuSans-61"/>
     <use x="1126.025391" xlink:href="#DejaVuSans-72"/>
     <use x="1167.138672" xlink:href="#DejaVuSans-69"/>
     <use x="1194.921875" xlink:href="#DejaVuSans-73"/>
     <use x="1247.021484" xlink:href="#DejaVuSans-6f"/>
     <use x="1308.203125" xlink:href="#DejaVuSans-6e"/>
    </g>
   </g>
   <g id="legend_1">
    <g id="patch_7">
     <path d="M 64.6 109.018875 
L 188.2375 109.018875 
Q 190.2375 109.018875 190.2375 107.018875 
L 190.2375 48.472 
Q 190.2375 46.472 188.2375 46.472 
L 64.6 46.472 
Q 62.6 46.472 62.6 48.472 
L 62.6 107.018875 
Q 62.6 109.018875 64.6 109.018875 
z
" style="fill:#ffffff;opacity:0.8;stroke:#cccccc;stroke-linejoin:miter;"/>
    </g>
    <g id="line2d_18">
     <path d="M 66.6 54.570438 
L 86.6 54.570438 
" style="fill:none;stroke:#1f77b4;stroke-linecap:square;stroke-width:1.5;"/>
    </g>
    <g id="line2d_19"/>
    <g id="text_17">
     <!-- pg -->
     <g transform="translate(94.6 58.070438)scale(0.1 -0.1)">
      <use xlink:href="#DejaVuSans-70"/>
      <use x="63.476562" xlink:href="#DejaVuSans-67"/>
     </g>
    </g>
    <g id="line2d_20">
     <path d="M 66.6 69.248563 
L 86.6 69.248563 
" style="fill:none;stroke:#ff7f0e;stroke-linecap:square;stroke-width:1.5;"/>
    </g>
    <g id="line2d_21"/>
    <g id="text_18">
     <!-- pg_nnbaseline -->
     <g transform="translate(94.6 72.748563)scale(0.1 -0.1)">
      <defs>
       <path d="M 3263 -1063 
L 3263 -1509 
L -63 -1509 
L -63 -1063 
L 3263 -1063 
z
" id="DejaVuSans-5f" transform="scale(0.015625)"/>
       <path d="M 3116 1747 
Q 3116 2381 2855 2742 
Q 2594 3103 2138 3103 
Q 1681 3103 1420 2742 
Q 1159 2381 1159 1747 
Q 1159 1113 1420 752 
Q 1681 391 2138 391 
Q 2594 391 2855 752 
Q 3116 1113 3116 1747 
z
M 1159 2969 
Q 1341 3281 1617 3432 
Q 1894 3584 2278 3584 
Q 2916 3584 3314 3078 
Q 3713 2572 3713 1747 
Q 3713 922 3314 415 
Q 2916 -91 2278 -91 
Q 1894 -91 1617 61 
Q 1341 213 1159 525 
L 1159 0 
L 581 0 
L 581 4863 
L 1159 4863 
L 1159 2969 
z
" id="DejaVuSans-62" transform="scale(0.015625)"/>
       <path d="M 603 4863 
L 1178 4863 
L 1178 0 
L 603 0 
L 603 4863 
z
" id="DejaVuSans-6c" transform="scale(0.015625)"/>
      </defs>
      <use xlink:href="#DejaVuSans-70"/>
      <use x="63.476562" xlink:href="#DejaVuSans-67"/>
      <use x="126.953125" xlink:href="#DejaVuSans-5f"/>
      <use x="176.953125" xlink:href="#DejaVuSans-6e"/>
      <use x="240.332031" xlink:href="#DejaVuSans-6e"/>
      <use x="303.710938" xlink:href="#DejaVuSans-62"/>
      <use x="367.1875" xlink:href="#DejaVuSans-61"/>
      <use x="428.466797" xlink:href="#DejaVuSans-73"/>
      <use x="480.566406" xlink:href="#DejaVuSans-65"/>
      <use x="542.089844" xlink:href="#DejaVuSans-6c"/>
      <use x="569.873047" xlink:href="#DejaVuSans-69"/>
      <use x="597.65625" xlink:href="#DejaVuSans-6e"/>
      <use x="661.035156" xlink:href="#DejaVuSans-65"/>
     </g>
    </g>
    <g id="line2d_22">
     <path d="M 66.6 84.204813 
L 86.6 84.204813 
" style="fill:none;stroke:#2ca02c;stroke-linecap:square;stroke-width:1.5;"/>
    </g>
    <g id="line2d_23"/>
    <g id="text_19">
     <!-- pg_rtg -->
     <g transform="translate(94.6 87.704813)scale(0.1 -0.1)">
      <use xlink:href="#DejaVuSans-70"/>
      <use x="63.476562" xlink:href="#DejaVuSans-67"/>
      <use x="126.953125" xlink:href="#DejaVuSans-5f"/>
      <use x="176.953125" xlink:href="#DejaVuSans-72"/>
      <use x="218.066406" xlink:href="#DejaVuSans-74"/>
      <use x="257.275391" xlink:href="#DejaVuSans-67"/>
     </g>
    </g>
    <g id="line2d_24">
     <path d="M 66.6 99.161063 
L 86.6 99.161063 
" style="fill:none;stroke:#d62728;stroke-linecap:square;stroke-width:1.5;"/>
    </g>
    <g id="line2d_25"/>
    <g id="text_20">
     <!-- pg_rtg_nnbaseline -->
     <g transform="translate(94.6 102.661063)scale(0.1 -0.1)">
      <use xlink:href="#DejaVuSans-70"/>
      <use x="63.476562" xlink:href="#DejaVuSans-67"/>
      <use x="126.953125" xlink:href="#DejaVuSans-5f"/>
      <use x="176.953125" xlink:href="#DejaVuSans-72"/>
      <use x="218.066406" xlink:href="#DejaVuSans-74"/>
      <use x="257.275391" xlink:href="#DejaVuSans-67"/>
      <use x="320.751953" xlink:href="#DejaVuSans-5f"/>
      <use x="370.751953" xlink:href="#DejaVuSans-6e"/>
      <use x="434.130859" xlink:href="#DejaVuSans-6e"/>
      <use x="497.509766" xlink:href="#DejaVuSans-62"/>
      <use x="560.986328" xlink:href="#DejaVuSans-61"/>
      <use x="622.265625" xlink:href="#DejaVuSans-73"/>
      <use x="674.365234" xlink:href="#DejaVuSans-65"/>
      <use x="735.888672" xlink:href="#DejaVuSans-6c"/>
      <use x="763.671875" xlink:href="#DejaVuSans-69"/>
      <use x="791.455078" xlink:href="#DejaVuSans-6e"/>
      <use x="854.833984" xlink:href="#DejaVuSans-65"/>
     </g>
    </g>
   </g>
  </g>
 </g>
 <defs>
  <clipPath id="p6bbcf5bb6b">
   <rect height="266.112" width="357.12" x="57.6" y="41.472"/>
  </clipPath>
 </defs>
</svg>
